<?xml version="1.0" encoding="UTF-8"?>
<!DOCTYPE svg PUBLIC "-//W3C//DTD SVG 1.1//EN" "http://www.w3.org/Graphics/SVG/1.1/DTD/svg11.dtd">
<!-- Creator: CorelDRAW 2021 (64 Bit) -->
<svg xmlns="http://www.w3.org/2000/svg" xml:space="preserve" width="2000px" height="301px" version="1.1" style="shape-rendering:geometricPrecision; text-rendering:geometricPrecision; image-rendering:optimizeQuality; fill-rule:evenodd; clip-rule:evenodd"
viewBox="0 0 1998.32 300.4"
 xmlns:xlink="http://www.w3.org/1999/xlink"
 xmlns:xodm="http://www.corel.com/coreldraw/odm/2003">
 <defs>
  <style type="text/css">
   <![CDATA[
    .fil1 {fill:#3E4449;fill-rule:nonzero}
    .fil0 {fill:#F7B43B;fill-rule:nonzero}
   ]]>
  </style>
 </defs>
 <g id="Camada_x0020_1">
  <metadata id="CorelCorpID_0Corel-Layer"/>
  <g id="_2277556849136">
   <path class="fil0" d="M364.9 281.15l16.32 0 2.84 -13.27 26.35 0c6.3,0 9.28,-0.23 12.6,-0.87 5.41,-1.21 9.79,-5.43 11.96,-11.48 1.95,-5.59 3.49,-13.01 3.49,-17.14 0,-4.28 -1.63,-7.36 -4.86,-9.14 -3.07,-1.7 -5.57,-2.02 -16,-2.02l-41.24 0 -11.46 53.92zm-52.63 -98.74l51.92 -76.33c1.8,-2.64 -0.09,-6.21 -3.29,-6.21l-357.92 0c-1.64,0 -2.98,1.33 -2.98,2.98 0,1.61 1.27,2.93 2.88,2.98 12.82,0.39 68.07,2.91 156.63,18.94 85.27,15.42 134.46,49.03 147.09,58.59 1.81,1.36 4.39,0.93 5.67,-0.95zm1188.64 81.53c-1.04,4.19 -1.29,5.89 -1.29,8.32 0,4.44 2.27,7.03 7.29,8.16 4.19,0.89 8.55,1.14 22.78,1.14 22.48,0 29.26,-1.3 33.64,-6.48 3.07,-3.62 5.34,-10.98 5.34,-17.12 0,-4.13 -1.54,-6.81 -4.77,-8.18 -2.36,-1.12 -4.28,-1.38 -10.27,-1.61 -4.28,-0.15 -7.03,-0.25 -8.02,-0.25l-15.26 0c-6.55,-0.16 -6.64,-0.16 -8.02,-1.05 -0.71,-0.48 -1.21,-1.38 -1.21,-2.5 0,-3.07 2.04,-5.18 5.34,-5.5 2.59,-0.25 9.78,-0.48 16.5,-0.48 9.46,0 11.39,0.55 11.39,3.46 0,0.41 -0.08,0.99 -0.23,1.88l15.92 0c0.8,-3.16 1.06,-5.11 1.06,-7.04 0,-4.05 -1.7,-6.71 -5.02,-8.02 -3.97,-1.53 -7.93,-1.85 -24.02,-1.85 -21.1,0 -27.89,1.3 -32.33,6.23 -3.07,3.39 -5.57,11.23 -5.57,17.46 0,4.29 2.02,7.04 6.05,8.32 2.59,0.83 7.13,1.21 14.48,1.21l14.87 0c8.57,0.1 8.57,0.1 10.18,0.65 1.21,0.41 1.95,1.53 1.95,3.09 0,3.62 -1.95,5.32 -6.88,5.89 -2.02,0.25 -8.89,0.41 -15.67,0.41 -4.13,0 -8.57,-0.25 -10.11,-0.57 -1.46,-0.32 -2.36,-1.28 -2.36,-2.75 0,-0.8 0.09,-1.38 0.35,-2.82l-16.11 0zm-100 17.21l18.61 0 7.2 -9.62 34.76 0 3.3 9.62 17.94 0 -18.01 -53.92 -22 0 -41.8 53.92zm34.06 -20.85l16.08 -21.52 7.1 21.52 -23.18 0zm-67.51 20.85l16.41 0 11.48 -53.92 -16.43 0 -11.46 53.92zm-91.35 0l16.32 0 2.91 -13.59 25.23 0c3.14,0 4.77,0.16 5.66,0.48 1.54,0.58 2.27,1.72 2.27,3.49 0,0.8 -0.18,1.85 -0.41,2.91l-1.38 6.71 16.57 0 1.85 -8.48c0.99,-5.18 1.06,-5.91 1.06,-7.13 0,-1.94 -1.06,-3.39 -2.75,-4.03 -1.12,-0.41 -1.86,-0.48 -4.29,-0.82 4.86,-1.03 7.04,-2.34 9.15,-5.48 2.33,-3.64 4.12,-11 4.12,-17.39 0,-8.25 -4.05,-10.59 -18.35,-10.59l-46.5 0 -11.46 53.92zm21.98 -26.76l3 -13.89 26.26 0c3.55,0 4.06,0 5.34,0.39 1.63,0.48 2.43,1.63 2.43,3.32 0,0.89 -0.25,2.5 -0.57,4.13 -0.64,2.65 -1.22,3.8 -2.5,4.67 -1.63,1.05 -3.48,1.38 -8.25,1.38l-25.71 0zm-92.65 -27.16l-11.46 53.92 60.29 0 2.59 -12.21 -44.13 0 2.01 -9.54 41.16 0 2.27 -10.67 -41.16 0 2.02 -9.29 43.49 0 2.59 -12.21 -59.67 0zm-70 53.92l16.41 0 8.66 -40.58 23.99 0 2.84 -13.34 -64.43 0 -2.82 13.34 24.01 0 -8.66 40.58zm-109.38 0l18.61 0 7.2 -9.62 34.76 0 3.3 9.62 17.94 0 -18.01 -53.92 -22 0 -41.8 53.92zm34.05 -20.85l16.09 -21.52 7.11 21.52 -23.2 0zm-117.7 20.85l50.92 0c8.73,0 12.76,-1.05 16.25,-4.38 3.55,-3.23 5.91,-9.21 5.91,-14.94 0,-4.76 -2.68,-7.44 -8.25,-8 4.28,-0.82 6.14,-1.78 7.93,-4.21 1.92,-2.75 3.46,-8.41 3.46,-12.93 0,-3.57 -1.29,-5.91 -4.2,-7.51 -2.42,-1.47 -5.66,-1.95 -11.89,-1.95l-48.67 0 -11.46 53.92zm22.87 -32.42l2.02 -9.54 27.15 0c3.17,0 3.9,0.09 4.86,0.41 1.47,0.49 2.11,1.54 2.11,3.24 0,1.76 -0.89,3.8 -2.27,4.76 -1.21,0.9 -2.5,1.13 -6.3,1.13l-27.57 0zm-4.28 20.46l2.01 -9.88 28.94 0c3.65,0 4.29,0.09 5.18,0.42 1.29,0.48 1.95,1.53 1.95,3.23 0,2.17 -1.14,4.44 -2.75,5.43 -1.3,0.71 -2.11,0.8 -5.98,0.8l-29.35 0zm-119.09 -41.96l-11.46 53.92 60.29 0 2.59 -12.21 -44.13 0 2.01 -9.54 41.16 0 2.27 -10.67 -41.16 0 2.02 -9.29 43.49 0 2.59 -12.21 -59.67 0zm-127.16 36.71c-1.03,4.19 -1.28,5.89 -1.28,8.32 0,4.44 2.26,7.03 7.28,8.16 4.2,0.89 8.55,1.14 22.78,1.14 22.48,0 29.26,-1.3 33.64,-6.48 3.07,-3.62 5.34,-10.98 5.34,-17.12 0,-4.13 -1.54,-6.81 -4.77,-8.18 -2.36,-1.12 -4.28,-1.38 -10.26,-1.61 -4.29,-0.15 -7.04,-0.25 -8.02,-0.25l-15.27 0c-6.55,-0.16 -6.64,-0.16 -8.02,-1.05 -0.71,-0.48 -1.21,-1.38 -1.21,-2.5 0,-3.07 2.04,-5.18 5.34,-5.5 2.59,-0.25 9.78,-0.48 16.5,-0.48 9.46,0 11.39,0.55 11.39,3.46 0,0.41 -0.07,0.99 -0.23,1.88l15.92 0c0.8,-3.16 1.06,-5.11 1.06,-7.04 0,-4.05 -1.7,-6.71 -5.02,-8.02 -3.96,-1.53 -7.93,-1.85 -24.02,-1.85 -21.1,0 -27.88,1.3 -32.33,6.23 -3.07,3.39 -5.57,11.23 -5.57,17.46 0,4.29 2.02,7.04 6.05,8.32 2.59,0.83 7.13,1.21 14.48,1.21l14.88 0c8.57,0.1 8.57,0.1 10.17,0.65 1.22,0.41 1.95,1.53 1.95,3.09 0,3.62 -1.95,5.32 -6.88,5.89 -2.01,0.25 -8.89,0.41 -15.67,0.41 -4.12,0 -8.57,-0.25 -10.11,-0.57 -1.46,-0.32 -2.36,-1.28 -2.36,-2.75 0,-0.8 0.1,-1.38 0.35,-2.82l-16.11 0zm-100 17.21l18.61 0 7.2 -9.62 34.76 0 3.3 9.62 17.94 0 -18.01 -53.92 -22 0 -41.8 53.92zm34.06 -20.85l16.08 -21.52 7.11 21.52 -23.19 0zm-59.51 0.57c-0.89,3.87 -2.01,5.48 -4.53,6.46 -2.34,0.96 -4.29,1.12 -16.66,1.12 -12.68,0 -15.04,-0.96 -15.04,-5.98 0,-2.59 0.58,-5.82 2.04,-12.05 1.7,-6.94 3.08,-8.89 7.36,-10.01 1.76,-0.48 5.89,-0.65 14.71,-0.65 13.18,0 14.94,0.49 14.94,4.2 0,0.57 -0.07,1.14 -0.23,2.18l15.68 0c0.89,-3.88 1.21,-6.05 1.21,-8.39 0,-5.11 -2.11,-7.93 -6.87,-9.47 -3.56,-1.14 -9.22,-1.46 -25.55,-1.46 -12.77,0 -18.17,0.48 -22.71,2.11 -7.93,2.84 -11.32,7.35 -14.14,18.92 -2.2,8.74 -3.48,16.32 -3.48,20.38 0,4.83 1.21,7.99 3.8,9.76 3.96,2.84 8.73,3.57 23.76,3.57 6.88,0 14.55,-0.09 17.05,-0.16 11.16,-0.41 16.34,-2.2 19.89,-6.96 1.95,-2.59 2.84,-5.09 4.61,-13.57l-15.84 0zm-24.81 23.28l-8.51 13.34 5.83 2.91 11.15 -10.93 -8.47 -5.32zm-101.8 -56.92l-11.45 53.92 60.28 0 2.59 -12.21 -44.13 0 2.02 -9.54 41.15 0 2.27 -10.67 -41.15 0 2.01 -9.29 43.49 0 2.59 -12.21 -59.67 0zm-75.88 27.57l3.07 -14.49 23.83 0c3.39,0 4.05,0.1 5.34,0.67 1.46,0.64 2.11,1.76 2.11,3.71 0,2.91 -0.97,6.14 -2.27,7.77 -1.54,1.76 -3.49,2.34 -8.25,2.34l-23.83 0z"/>
   <path class="fil1" d="M297.27 195.68c-5.56,-4.2 -18.11,-12.94 -37.67,-22.62l-0.7 3.83c-2.93,11.04 -5.46,16.29 -9.48,21.65 -10.75,14.42 -26.4,19.8 -60.14,21.03 -7.58,0.24 -30.8,0.48 -51.58,0.48 -45.47,0 -59.89,-2.19 -71.87,-10.75 -7.83,-5.38 -11.49,-14.91 -11.49,-29.58 0,-7.22 1.37,-18.2 3.84,-31.41l5.02 -22.24c-20.33,-2.28 -36.05,-3.49 -46.91,-4.14l-5.01 22.24c-4.74,23.37 -7.4,42.84 -7.4,55 0,21.4 5.35,35.3 16.76,43.15 17.48,12.48 38.51,15.69 104.84,15.69 30.31,0 64.18,-0.36 75.24,-0.71 49.21,-1.79 72.03,-9.63 87.72,-30.67 5.48,-7.31 9.06,-14.51 12.99,-28.55 -1.48,-0.63 -2.88,-1.43 -4.16,-2.4zm305.2 -84.53c-5.81,27.72 -8.72,35.91 -15.05,44.36 -11.62,15.57 -28.52,21.38 -64.95,22.7 -8.18,0.27 -33.27,0.53 -55.71,0.53 -49.1,0 -64.68,-2.37 -77.62,-11.62 -8.45,-5.81 -12.41,-16.1 -12.41,-31.94 0,-13.2 4.23,-38.02 11.35,-66.54 9.24,-37.75 20.33,-52.54 46.21,-61.78 14.78,-5.27 32.47,-6.86 74.19,-6.86 53.33,0 71.81,1.06 83.42,4.75 15.58,5.02 22.45,14.26 22.45,30.89 0,7.66 -1.06,14.79 -3.96,27.46l-51.22 0c0.52,-3.43 0.79,-5.28 0.79,-7.13 0,-12.14 -5.81,-13.73 -48.84,-13.73 -28.78,0 -42.24,0.53 -48.06,2.12 -13.99,3.69 -18.48,10.03 -24.02,32.74 -4.75,20.32 -6.6,30.88 -6.6,39.33 0,16.37 7.66,19.54 49.11,19.54 40.39,0 46.73,-0.53 54.39,-3.7 8.18,-3.17 11.88,-8.45 14.78,-21.12l51.75 0zm1249.32 -109.83l53.59 0 -28.25 132.54 121.19 0 -9.25 43.56 -174.77 0 37.49 -176.1zm-131.75 107.98l-23.23 -70.22 -52.54 70.22 75.77 0zm-50.43 -107.98l71.82 0 58.87 176.1 -58.61 0 -10.82 -31.42 -113.53 0 -23.5 31.42 -60.72 0 136.49 -176.1zm-213.85 88.71c15.58,0 21.65,-1.06 26.93,-4.49 4.23,-2.9 6.08,-6.6 8.19,-15.31 1.05,-5.28 1.85,-10.56 1.85,-13.47 0,-5.54 -2.65,-9.24 -7.92,-10.82 -4.23,-1.32 -5.81,-1.32 -17.43,-1.32l-85.8 0 -9.77 45.41 83.95 0zm-118.28 -88.71l151.81 0c46.73,0 59.93,7.66 59.93,34.59 0,20.85 -5.8,44.88 -13.46,56.76 -6.87,10.3 -13.99,14.52 -29.83,17.95 7.92,1.06 10.3,1.32 13.99,2.64 5.55,2.12 8.97,6.87 8.97,13.21 0,3.95 -0.26,6.33 -3.42,23.23l-6.08 27.72 -54.12 0 4.49 -21.91c0.79,-3.44 1.32,-6.87 1.32,-9.51 0,-5.81 -2.38,-9.5 -7.4,-11.35 -2.9,-1.06 -8.18,-1.59 -18.48,-1.59l-82.37 0 -9.5 44.36 -53.34 0 37.49 -176.1zm-158.14 43.56l-78.41 0 9.24 -43.56 210.42 0 -9.24 43.56 -78.41 0 -28.25 132.54 -53.6 0 28.25 -132.54zm-327.38 -43.56l85.28 0 78.15 133.86 26.93 -133.86 50.69 0 -37.23 176.1 -86.07 0 -77.09 -132.54 -26.67 132.54 -51.48 0 37.49 -176.1zm-15.31 0l-8.45 39.87 -142.04 0 -6.6 30.36 134.38 0 -7.39 34.85 -134.38 0 -6.6 31.15 144.15 0 -8.45 39.87 -196.95 0 37.48 -176.1 194.85 0zm-759.37 83.09c7.04,-11.72 16.35,-18.5 30.35,-23.5 13.69,-4.89 30.07,-6.36 68.7,-6.36 49.38,0 66.49,0.98 77.25,4.4 13.4,4.32 19.83,12.03 20.67,25.46l48.78 0c1.26,-7.48 1.78,-13.45 1.78,-19.67 0,-22.47 -9.27,-34.95 -30.31,-41.72 -15.69,-5 -40.65,-6.42 -112.68,-6.42 -56.34,0 -80.23,2.14 -100.2,9.27 -28.59,10.21 -43.81,25.44 -55.23,58.54l50.89 0z"/>
  </g>
 </g>
</svg>
