<?xml version="1.0" encoding="UTF-8"?>
<!DOCTYPE svg PUBLIC "-//W3C//DTD SVG 1.1//EN" "http://www.w3.org/Graphics/SVG/1.1/DTD/svg11.dtd">
<!-- Creator: CorelDRAW 2021 (64 Bit) -->
<svg xmlns="http://www.w3.org/2000/svg" xml:space="preserve" width="1303px" height="354px" version="1.1" style="shape-rendering:geometricPrecision; text-rendering:geometricPrecision; image-rendering:optimizeQuality; fill-rule:evenodd; clip-rule:evenodd"
viewBox="0 0 724.71 196.97"
 xmlns:xlink="http://www.w3.org/1999/xlink"
 xmlns:xodm="http://www.corel.com/coreldraw/odm/2003">
 <defs>
  <style type="text/css">
   <![CDATA[
    .fil0 {fill:white}
   ]]>
  </style>
 </defs>
 <g id="Camada_x0020_1">
  <metadata id="CorelCorpID_0Corel-Layer"/>
  <path class="fil0" d="M0 196.97l722.7 0 -0.84 -46.51 -721.86 0.51 0 46zm81.63 -160.8c27.94,-2.45 70.71,-5.2 69.69,27.75 -1,32.29 -46.64,29.57 -70.04,26.69l0.35 -54.44zm-81.63 85.05l2.08 0.31c32.67,2.39 73.74,0.29 107.35,0.29 33.99,0 67.28,3.42 95.37,-11.26 21.13,-11.05 40.54,-40.18 25.16,-72.78 -9.71,-20.59 -36.49,-37.25 -68.59,-36.52l0 -1.26 -161.37 0 0 121.22zm724.71 -121.22l-210.82 0 -0.04 121.76 79.76 0.08c-0.11,-6.96 -0.23,-14.09 -0.25,-21.04 -0.04,-9.61 -0.48,-9.28 9.13,-9.3l120.16 0.17 -0.34 -34.24 -128.8 0.05 0.12 -21.99 131.08 0.03 0 -35.52zm-298.22 0l-119.19 0c-9.74,19.7 -69.45,111.83 -71.17,122.11l74.84 0.05c10.68,-11.3 47.15,-81.67 56.04,-90.28 3.52,3.51 33.26,53.07 35.28,58.71l-46.22 -0.03c-3.39,7.41 -16.5,25.01 -17.31,31.55l159.18 0.05c-1.93,-11 -65.05,-106.26 -71.45,-122.16z"/>
 </g>
</svg>
