<?xml version="1.0" encoding="UTF-8"?>
<!DOCTYPE svg PUBLIC "-//W3C//DTD SVG 1.1//EN" "http://www.w3.org/Graphics/SVG/1.1/DTD/svg11.dtd">
<!-- Creator: CorelDRAW 2021 (64 Bit) -->
<svg xmlns="http://www.w3.org/2000/svg" xml:space="preserve" width="1505px" height="203px" version="1.1" style="shape-rendering:geometricPrecision; text-rendering:geometricPrecision; image-rendering:optimizeQuality; fill-rule:evenodd; clip-rule:evenodd"
viewBox="0 0 1407.51 190.23"
 xmlns:xlink="http://www.w3.org/1999/xlink"
 xmlns:xodm="http://www.corel.com/coreldraw/odm/2003">
 <defs>
  <style type="text/css">
   <![CDATA[
    .fil0 {fill:white}
   ]]>
  </style>
 </defs>
 <g id="Camada_x0020_1">
  <metadata id="CorelCorpID_0Corel-Layer"/>
  <g>
   <path class="fil0" d="M490.37 0l-172.12 0 172.12 0zm306.63 0l-297.86 0 297.86 0zm-388.18 190.23l70.38 0 -70.38 0zm99.01 0l188.61 0 -188.61 0zm189.54 0l99.58 0 -99.58 0zm-549.71 0l58.29 0 12.92 -27.59 107.14 0.12c1.78,4.47 4.52,9.5 6.54,13.79 2.09,4.44 4.51,9.7 6.66,13.68l69.61 0c-0.19,-2.45 -40.68,-86.02 -45.15,-95.37 -7.7,-16.11 -14.88,-31.36 -22.78,-47.59 -7.82,-16.05 -14.83,-31.85 -22.64,-47.27l-80.04 0c-3.34,7.67 -7.68,16.35 -11.37,23.95l-34.19 71.42c-2.12,4.4 -44.68,92.63 -44.99,94.86zm331.54 0l28.63 0c1.4,-0.75 16.09,-1.92 17.82,-2.11 7.55,-0.84 44.01,-7.62 47.1,-11.27 0.73,-0.99 9.44,-51.85 9.31,-55.72 -2.14,0.67 -5.2,2.42 -7.66,3.55 -20.57,9.51 -41.88,14.39 -65.28,14.61 -46.45,0.43 -60.34,-51.33 -33.21,-76.29 8.57,-7.88 18.18,-12.16 33.76,-12.03 20.27,0.17 39.12,4.08 57.06,11.29l15.58 6.82 -9.28 -56.06c-19.23,-6.64 -47.63,-12.42 -73.89,-13.02l-8.77 0c-7.36,0.18 -14.44,0.82 -20.96,2.05 -63.37,11.83 -98.76,85.14 -62.62,143.19 4.43,7.12 9.83,13.59 15.94,19.25 9.48,8.76 20.7,15.59 32.82,19.92 12.38,4.44 17.32,3.79 22.2,5.21 1.88,0.55 0.71,0.14 1.45,0.61zm698.72 -111.57l58.68 111.57 82.12 0 0.01 -190.23 -63.14 0 -0.2 112.42c-2.51,-1.65 -28.35,-52.24 -30.25,-55.93 -4.76,-9.22 -9.71,-18.49 -14.84,-28.08l-14.58 -27.31 -0.06 -1.1 -82.66 0 -0.03 190.23 63.47 0 0.19 -111.61c0.74,-0.59 -0.08,-0.5 1.29,0.04zm-397.42 54.29c1.23,-1.6 2.2,-9.9 2.21,-11.85 -1.43,0.37 -12.72,5.37 -13.97,6.73 -1.83,0.05 -12.87,4.27 -16.05,5.23 -14.97,4.57 -43.14,8.62 -57.14,4.85 -36.34,-9.78 -44.26,-56.65 -15.44,-78 9.51,-7.05 19.27,-9.5 34.12,-8.86 19,0.82 36.1,4.3 53.13,11.24l15.26 6.6c-0.04,-0.53 -7.93,-54.45 -9.59,-55.91 -5.53,-2.76 -21.15,-6.34 -28.23,-7.8 -10.23,-2.12 -20.84,-3.75 -31.71,-4.28 -25.21,-1.24 -42.82,-1.57 -63.53,7.56 -73.83,32.56 -77.5,138.5 0.69,173.67 12.76,5.75 29.24,8.04 46.19,8.1l0.93 0 2.41 -0.02c15.97,-0.21 32.18,-2.33 45.93,-5.34 5.66,-1.24 24.22,-5.56 27.79,-7.84 1.14,-4.07 7.3,-41.4 7,-44.08zm563.25 57.28l63.76 0 0 -190.23 -63.72 0 -0.04 190.23zm-318.89 0l63.08 0 -0.02 -190.23 -63.02 0 -0.04 190.23zm-227.91 0l63.49 0 0.24 -60.65c2.41,-1.02 69.74,-1.25 75.36,-0.2l0.32 60.85 63.46 0 -0.02 -190.23 -63.4 0 -0.25 61.24 -75.74 0.12 -0.05 -60.26 0 -1.1 -63.36 0 -0.05 190.23zm-552.25 -80.4c0.26,-2.22 17.35,-37.4 20.65,-44.06 1.23,-2.49 5.46,-12.6 7.42,-14.16l27.67 58.26 -55.74 -0.04zm-181.26 16.88l84.55 0.07 -0.13 -52.67 -84.25 -0.24c-0.3,-4.12 -0.41,-18.22 0.25,-21.12 3.69,0.99 83.29,0.11 94.48,0.1 9.7,0 22.45,0.65 31.79,-0.19l0.38 -52.66 -190.51 0 0 190.23 63.45 0 -0.01 -63.52z"/>
  </g>
 </g>
</svg>
