<?xml version="1.0" encoding="UTF-8"?>
<!DOCTYPE svg PUBLIC "-//W3C//DTD SVG 1.1//EN" "http://www.w3.org/Graphics/SVG/1.1/DTD/svg11.dtd">
<!-- Creator: CorelDRAW 2021 (64 Bit) -->
<svg xmlns="http://www.w3.org/2000/svg" xml:space="preserve" width="1180px" height="443px" version="1.1" style="shape-rendering:geometricPrecision; text-rendering:geometricPrecision; image-rendering:optimizeQuality; fill-rule:evenodd; clip-rule:evenodd"
viewBox="0 0 483.32 181.29"
 xmlns:xlink="http://www.w3.org/1999/xlink"
 xmlns:xodm="http://www.corel.com/coreldraw/odm/2003">
 <defs>
  <style type="text/css">
   <![CDATA[
    .fil0 {fill:white}
   ]]>
  </style>
 </defs>
 <g id="Camada_x0020_1">
  <metadata id="CorelCorpID_0Corel-Layer"/>
  <path class="fil0" d="M346.44 98.2c1.78,-0.61 16.95,-24.87 19.28,-28.38 4.57,-6.87 2.2,-6.4 17.81,-5.83 0.02,1.46 -27.72,44.42 -30.98,49.58 -1.75,2.77 -10.18,14.58 -8.56,17.54 4.07,5.26 14.17,-4.51 15.87,-6.16 2.38,-2.32 10.26,-11 12.52,-11.66 1.21,0.62 2.92,2.31 3.61,3.25 -0.81,3.06 -20.41,25.85 -34.55,26.13 -7.69,0.16 -8.51,-3.94 -10.55,-9.62 -2.01,0.69 -4.36,3.73 -9.35,6.4 -3.37,1.81 -8.23,3.18 -12.79,2 -12.77,-3.29 -10.27,-16.67 -10.65,-21.26 -3.49,0.05 -8.66,6.05 -16.54,4.37 -8.38,-1.78 -7.91,-9.98 -9.3,-11.74l-11.73 17.94c-0.97,1.55 -4.81,8.04 -5.9,9.1 -1.73,1.67 -10.71,1.12 -13.78,0.79 0.14,-2.37 4.52,-8.42 5.87,-10.49l12.41 -20.37c1.76,-2.98 5.27,-7.36 4.13,-11.59 -9.48,-4.34 -28.56,25.95 -33.56,31.31 -4.35,4.66 -11.24,11.51 -21.14,12.16 -11.08,0.72 -16.61,-5.37 -19.44,-13.46 -3.48,0.93 -6.84,6.59 -10.16,7.42 -1.33,-0.71 -3.26,-2.96 -3.51,-4.98 1.46,-2.12 4.39,-4.07 6.16,-6 6.6,-7.24 6.63,-14.58 13.57,-22.84 3.56,-4.25 7.78,-8.01 13.88,-10.71 4.94,-2.18 16,-6.39 15.35,3.1 -8.75,3.86 -15.08,7.37 -19.45,14.67 -2.04,3.42 -4.1,8.46 -3.24,13.55 2.18,13.01 21.39,8.12 26.57,-9.78 3.93,-13.58 -2.87,-18.18 1.48,-21.29 9.56,-6.85 9.31,4.27 10.89,11.77 2.48,-0.7 9.07,-10.73 16.28,-14.65 3.3,-1.8 8.65,-3.44 12.72,-1.68 5.16,2.23 3.33,6.03 4.87,10.61 0.94,-0.37 4.12,-4.17 5.24,-5.2 6.16,-5.71 16.56,-7.05 20.3,0.18 4.32,8.35 -5.65,18.4 -12.37,13.26 -2.58,-1.97 -2.33,-3.48 -2.69,-7.32 -6.09,1.95 -8.72,20.01 4.35,16.68 13.19,-3.35 31.4,-33.49 50.01,-25.08 5.83,2.63 5.46,5.55 7.07,8.28zm-129.03 -26.51c0.94,0.34 1.86,0.17 2.77,-0.38 2.12,-1.26 4.57,-4.4 3.26,-7.44 -4.51,-1.26 -7.06,4.25 -6.03,7.82zm121.09 33.02c1.48,-5.55 -3.93,-12.59 -16.15,-0.88 -4.16,3.98 -9.97,11.56 -10.24,19.99 -0.49,15.6 19.83,1.97 25.34,-10.86 1.13,-2.63 0.23,-1.45 -0.14,-2.68 -0.21,-0.68 -0.56,-0.42 0.22,-2.6 0.4,-1.1 0.63,-1.68 0.97,-2.97zm-114.12 -96.28c47.25,-1.81 99.67,2.97 143.4,13.05 39.47,9.1 87.81,26.9 101.99,55.02 12.04,23.86 -9.1,42.62 -21.04,51.3 -13.99,10.16 -34.38,18.92 -53.47,24.83 -81.07,25.14 -196.83,27.51 -279.81,7.44 -39.54,-9.57 -87.89,-26.52 -101.91,-55.14 -11.59,-23.67 8.82,-42.5 20.9,-50.99 47.45,-33.32 131.25,-43.27 189.94,-45.51zm-224.05 86.72c5.06,36.23 60.05,57.47 97.54,68.35 84.77,24.6 210.04,23.49 294.8,-2.09 34.28,-10.35 95.34,-35.39 90.37,-75 -4.42,-35.19 -60.68,-58.43 -97.7,-68.39 -34.64,-9.32 -71.53,-14.82 -108.08,-16.76 -12.65,-0.67 -27.37,-1.52 -40.04,-1.19 -50.74,1.34 -101.21,6.07 -146.28,19.77 -21.2,6.44 -41.34,14.36 -58.17,25.15 -12.79,8.19 -35.78,26.27 -32.44,50.16zm174.02 -41.37c2.29,5.23 -6.25,15.85 -8.56,18.19 -21.56,21.81 -47.3,0.42 -30.77,-22.57 6.94,-9.66 21.26,-16.24 37.25,-17.77 17.46,-1.67 33.92,1.38 50.38,3.92 26.19,4.05 48.71,8.08 75.25,3.84 2.34,-0.37 10.14,-2.07 11.67,-1.96 5.95,0.45 3.33,13.05 -17.63,17.86 -22.9,5.25 -48.16,-5.73 -69.29,-10.17 -0.07,0.08 -0.15,0.22 -0.19,0.28l-14.93 13.24c-2.46,2.22 -11.48,11.83 -12.53,15.98l16.63 -1c0.82,-5.66 0.11,-7.74 3.6,-11.38 7.36,-7.69 17.62,-0.97 12.43,8.76 -2.57,4.81 -6.41,4.67 -7.86,6.86 1.29,2.2 4.63,2.58 4.05,4.81 -0.84,3.26 -4.89,0.63 -5.93,-0.06 -1.79,-1.18 -3.63,-3.62 -5.3,-3.81 -1.45,-0.16 -6.13,0.48 -7.82,0.63 -18.05,1.65 -12.59,-1.29 -22.23,13.85 -10.2,16.03 -18.66,29.96 -32.23,39.69 -16.28,11.68 -41.85,10.21 -48.17,-8.36 -9.63,-28.3 27.44,-46.41 26.88,-32.36 -4,2.87 -7.7,4.66 -10.52,8 -11.86,14.08 1.68,30.18 20.96,20.98 6.98,-3.33 15.75,-11.42 20.28,-17.05 3.82,-4.73 14.26,-16.6 16,-20.98 -9.18,-0.65 -16.49,8.18 -18.95,4.55 -1.34,-5.8 10.27,-8.95 15.6,-10.1 2.97,-0.63 8.62,-0.78 10.5,-2.66 5.1,-5.09 9.15,-15.39 24.87,-26.55 2.87,-2.04 6.93,-3.66 7.67,-5.29 -19.88,-4.18 -46.07,-8.78 -62.41,2.43 -17.44,11.96 -6.24,31.3 11.81,15.9 6.4,-5.46 5.73,-8.96 9.49,-7.7zm44.89 -38.33c-43.44,2.67 -88.65,6.43 -129.62,19.91 -18.91,6.22 -37.13,13.56 -50.87,23.79 -13.69,10.19 -29.13,27.23 -14.66,48.88 15.98,23.92 64.11,39.74 101.66,47.53 43.68,9.07 91.75,12.09 138.32,10.53 54.14,-1.81 137.01,-12.19 180.34,-43.51 12.78,-9.24 30.02,-27.56 14.74,-49.13 -34.92,-49.29 -178.12,-61.79 -239.91,-58z"/>
 </g>
</svg>
