<?xml version="1.0" encoding="UTF-8"?>
<!DOCTYPE svg PUBLIC "-//W3C//DTD SVG 1.1//EN" "http://www.w3.org/Graphics/SVG/1.1/DTD/svg11.dtd">
<!-- Creator: CorelDRAW 2021 (64 Bit) -->
<svg xmlns="http://www.w3.org/2000/svg" xml:space="preserve" width="1505px" height="380px" version="1.1" style="shape-rendering:geometricPrecision; text-rendering:geometricPrecision; image-rendering:optimizeQuality; fill-rule:evenodd; clip-rule:evenodd"
viewBox="0 0 615.77 155.58"
 xmlns:xlink="http://www.w3.org/1999/xlink"
 xmlns:xodm="http://www.corel.com/coreldraw/odm/2003">
 <defs>
  <style type="text/css">
   <![CDATA[
    .fil0 {fill:white}
   ]]>
  </style>
 </defs>
 <g id="Camada_x0020_1">
  <metadata id="CorelCorpID_0Corel-Layer"/>
  <path class="fil0" d="M540.73 0.03l28.43 0c12.26,-0.37 22.62,2.54 30.48,9.72 21.69,19.79 22.01,74.49 -2.08,92.29 -7.71,5.69 -17.29,7.91 -27.7,8.61l-523.94 0c-10.42,-0.7 -20,-2.92 -27.7,-8.61 -24.09,-17.8 -23.78,-72.5 -2.09,-92.29 7.87,-7.18 18.22,-10.09 30.48,-9.72l494.12 0zm-422.04 149.73l0 5.39 -20.97 0 0 -31.04 20.95 0 0 5.42 -14.25 0 0 7.05 12.14 0 0 5.23 -12.14 0 0 7.95 14.27 0zm-2.1 -33.98l-5.93 6.63 -5.23 0 4.21 -6.63 6.95 0zm39.65 8.33c2.4,0 4.5,0.45 6.27,1.34 1.78,0.89 3.14,2.11 4.09,3.68 0.94,1.56 1.42,3.34 1.42,5.34 0,2 -0.47,3.74 -1.41,5.23 -0.94,1.49 -2.3,2.64 -4.08,3.45 -1.77,0.81 -3.87,1.22 -6.29,1.22l-5.5 0 0 10.78 -6.7 0 0 -31.04 12.2 0zm0 14.84c1.69,0 2.95,-0.4 3.78,-1.2 0.82,-0.79 1.23,-1.86 1.23,-3.23 0,-0.91 -0.17,-1.74 -0.53,-2.5 -0.36,-0.75 -0.91,-1.35 -1.66,-1.81 -0.76,-0.45 -1.7,-0.68 -2.82,-0.68l-5.5 0 0 9.42 5.5 0zm30.11 10.04l-11.01 0 -2.03 6.16 -7.12 0 11.52 -31.04 6.23 0 11.58 31.04 -7.14 0 -2.03 -6.16zm-1.8 -5.42l-3.73 -11.31 -3.71 11.31 7.44 0zm36.36 6.19l0 5.39 -23.79 0 0 -3.84 15.17 -21.78 -15.19 0 0 -5.42 23.54 0 0 3.74 -15.09 21.91 15.36 0zm44.42 5.39l-12.08 -20.01 0 20.01 -6.69 0 0 -31.04 6.69 0 12.08 20.02 0 -20.02 6.68 0 0 31.04 -6.68 0zm29.65 -6.16l-11 0 -2.03 6.16 -7.13 0 11.52 -31.04 6.23 0 11.59 31.04 -7.15 0 -2.03 -6.16zm-1.79 -5.42l-3.74 -11.31 -3.7 11.31 7.44 0zm56.43 6.19l0 5.39 -20.97 0 0 -31.04 20.95 0 0 5.42 -14.25 0 0 7.05 12.13 0 0 5.23 -12.13 0 0 7.95 14.27 0zm13.76 -7.55c-2.1,-0.68 -3.92,-1.44 -5.43,-2.27 -1.51,-0.83 -2.72,-1.87 -3.63,-3.12 -0.91,-1.25 -1.37,-2.74 -1.37,-4.46 0,-1.71 0.49,-3.23 1.48,-4.54 0.99,-1.32 2.35,-2.34 4.11,-3.05 1.75,-0.72 3.74,-1.08 5.99,-1.08 2.26,0 4.26,0.4 6,1.2 1.73,0.81 3.08,1.94 4.03,3.39 0.95,1.46 1.43,3.12 1.43,5l-6.68 0c0,-1.31 -0.42,-2.35 -1.25,-3.12 -0.83,-0.78 -2.05,-1.16 -3.66,-1.16 -1.02,0 -1.89,0.15 -2.61,0.45 -0.72,0.3 -1.26,0.7 -1.62,1.22 -0.36,0.52 -0.55,1.1 -0.55,1.74 0,0.95 0.49,1.76 1.48,2.42 0.98,0.66 2.5,1.31 4.56,1.95 3.49,1.06 6.08,2.39 7.78,3.99 1.7,1.6 2.55,3.65 2.55,6.15 0,1.8 -0.46,3.36 -1.39,4.66 -0.92,1.3 -2.23,2.29 -3.94,2.97 -1.69,0.69 -3.69,1.03 -5.98,1.03 -2.19,0 -4.25,-0.38 -6.18,-1.14 -1.92,-0.75 -3.49,-1.9 -4.7,-3.46 -1.21,-1.56 -1.81,-3.46 -1.81,-5.72l6.72 0c0,1.78 0.51,3.06 1.54,3.84 1.03,0.8 2.51,1.19 4.43,1.19 1.52,0 2.67,-0.31 3.45,-0.92 0.77,-0.61 1.16,-1.41 1.16,-2.41 0,-0.74 -0.15,-1.36 -0.47,-1.85 -0.31,-0.5 -0.89,-0.98 -1.73,-1.43 -0.84,-0.45 -2.08,-0.94 -3.71,-1.47zm40.47 -12.68l-9.47 0 0 25.62 -6.68 0 0 -25.62 -9.32 0 0 -5.42 25.47 0 0 5.42zm27.95 25.3l0 0.32 -7.18 0 -5.71 -11.21 -4.84 0 0 11.21 -6.7 0 0 -31.04 11.74 0c2.4,0 4.46,0.37 6.19,1.08 1.73,0.72 3.05,1.78 3.98,3.18 0.92,1.4 1.38,3.11 1.38,5.12 0,2.21 -0.47,4.01 -1.43,5.41 -0.95,1.39 -2.31,2.5 -4.09,3.31l6.66 12.62zm-17.73 -16.3l5.04 0c1.58,0 2.79,-0.4 3.62,-1.2 0.82,-0.8 1.24,-1.89 1.24,-3.28 0,-1.42 -0.42,-2.53 -1.23,-3.32 -0.82,-0.8 -2.03,-1.2 -3.63,-1.2l-5.04 0 0 9zm39.12 10.46l-11 0 -2.03 6.16 -7.12 0 11.52 -31.04 6.22 0 11.59 31.04 -7.14 0 -2.04 -6.16zm-1.79 -5.42l-3.73 -11.31 -3.71 11.31 7.44 0zm23.38 -19.46c2.78,0 5.25,0.63 7.4,1.87 2.15,1.25 3.83,2.99 5.04,5.24 1.21,2.26 1.82,4.83 1.82,7.73l0 1.36c0,2.92 -0.61,5.5 -1.82,7.74 -1.21,2.25 -2.89,3.99 -5.05,5.24 -2.16,1.24 -4.64,1.86 -7.43,1.86l-9.64 0 0 -31.04 9.68 0zm7.45 14.8c0,-3.07 -0.63,-5.4 -1.9,-6.99 -1.26,-1.59 -3.11,-2.39 -5.55,-2.39l-2.98 0 0 20.23 2.94 0c2.43,0 4.29,-0.81 5.57,-2.43 1.28,-1.6 1.92,-3.94 1.92,-7.02l0 -1.4zm28.84 10.08l-11 0 -2.03 6.16 -7.13 0 11.52 -31.04 6.23 0 11.59 31.04 -7.15 0 -2.03 -6.16zm-1.79 -5.42l-3.74 -11.31 -3.7 11.31 7.44 0zm-389.68 -61.21c-1.82,1.51 -4.43,3.01 -7.94,4.52 -3.38,1.4 -7.67,2.6 -12.62,3.61 -5.07,1 -10.67,1.5 -16.78,1.5 -8.46,0 -15.61,-1.4 -21.73,-4.11 -6.24,-2.61 -10.93,-6.62 -14.31,-11.83 -3.25,-5.22 -4.94,-11.53 -4.94,-18.86l0 -3.71c0,-7.22 1.69,-13.53 5.07,-18.75 3.38,-5.31 8.07,-9.22 14.18,-12.03 5.99,-2.71 12.75,-4.01 20.43,-4.01 12.49,0 21.85,2.2 27.97,6.62 6.11,4.41 9.63,10.53 10.54,18.35l-22.64 0c-0.65,-3.61 -2.08,-6.22 -4.42,-7.82 -2.21,-1.61 -5.73,-2.41 -10.54,-2.41 -5.08,0 -9.11,1.6 -12.1,5.01 -2.99,3.31 -4.42,8.33 -4.42,14.94l0 3.81c0,6.82 1.43,11.94 4.42,15.15 2.86,3.31 7.68,4.91 14.31,4.91 2.86,0 5.2,-0.3 7.29,-0.7 1.95,-0.5 3.51,-1.1 4.55,-1.71l0 -9.72 -14.7 0 0 -12.94 38.38 0 0 30.18zm91.25 -16.64c0,5.61 -1.56,10.33 -4.42,14.24 -2.99,4.01 -7.29,6.92 -12.75,8.92 -5.46,2.11 -11.97,3.11 -19.51,3.11 -7.42,0 -13.92,-1 -19.52,-3.11 -5.46,-2 -9.89,-5.01 -12.88,-8.92 -3.12,-3.91 -4.68,-8.73 -4.68,-14.24l0 -46.03 23.94 0 0 46.03c0,4.01 1.04,7.02 3.25,8.82 2.21,1.81 5.46,2.71 9.89,2.71 4.42,0 7.67,-0.9 9.75,-2.71 2.21,-1.8 3.26,-4.81 3.26,-8.82l0 -46.03 23.67 0 0 46.03zm42.52 -31.29l0 12.94 34.34 0 0 14.14 -34.34 0 0 14.74 40.72 0 0 14.74 -49.44 0 -14.96 0 0 -71.3 23.68 0 40.98 0 0 14.74 -40.98 0zm130.15 55.76l0 0.8 -25.37 0 -15.61 -24.07 -10.93 0 0 24.07 -23.68 0 0 -71.3 37.34 0c7.16,0 13.4,0.8 18.74,2.51 5.2,1.6 9.36,4.01 12.23,7.32 2.86,3.21 4.29,7.12 4.29,11.73 0,5.52 -1.3,9.83 -4.03,12.94 -2.61,3.11 -6.64,5.71 -11.84,7.72l18.86 28.28zm-51.91 -38.11l13.66 0c3.78,0 6.77,-0.8 8.72,-2.21 1.95,-1.5 2.86,-3.71 2.86,-6.61 0,-2.81 -0.91,-4.92 -2.99,-6.52 -2.08,-1.51 -4.94,-2.31 -8.59,-2.31l-13.66 0 0 17.65zm143.23 38.11l0 0.8 -25.37 0 -15.61 -24.07 -10.93 0 0 24.07 -23.68 0 0 -71.3 37.34 0c7.16,0 13.4,0.8 18.74,2.51 5.2,1.6 9.37,4.01 12.23,7.32 2.86,3.21 4.29,7.12 4.29,11.73 0,5.52 -1.3,9.83 -4.03,12.94 -2.6,3.11 -6.64,5.71 -11.84,7.72l18.86 28.28zm-51.91 -38.11l13.66 0c3.78,0 6.77,-0.8 8.72,-2.21 1.95,-1.5 2.86,-3.71 2.86,-6.61 0,-2.81 -0.91,-4.92 -2.99,-6.52 -2.08,-1.51 -4.94,-2.31 -8.59,-2.31l-13.66 0 0 17.65zm121.42 27.08l-29.79 0 -4.69 11.83 -25.49 0 33.69 -71.3 16.13 0 6.38 0 33.95 71.3 -25.5 0 -4.68 -11.83zm-5.98 -14.75l-8.98 -22.56 -8.98 22.56 17.96 0zm-489.68 -57.36l520.68 0c12.39,0 15.52,0.17 21.01,13.57 4.07,9.94 6.05,22.65 6.26,28.31 0.21,5.68 -0.94,19.72 -4.23,32.02 -4.49,16.79 -7.01,21.63 -23.22,21.63l-520.33 0c-16.2,0 -18.72,-4.84 -23.22,-21.63 -3.29,-12.3 -4.43,-26.34 -4.22,-32.02 0.21,-5.66 2.19,-18.37 6.26,-28.31 5.48,-13.4 8.62,-13.57 21.01,-13.57z"/>
 </g>
</svg>
