<?xml version="1.0" encoding="UTF-8"?>
<!DOCTYPE svg PUBLIC "-//W3C//DTD SVG 1.1//EN" "http://www.w3.org/Graphics/SVG/1.1/DTD/svg11.dtd">
<!-- Creator: CorelDRAW 2021 (64 Bit) -->
<svg xmlns="http://www.w3.org/2000/svg" xml:space="preserve" width="1328px" height="293px" version="1.1" style="shape-rendering:geometricPrecision; text-rendering:geometricPrecision; image-rendering:optimizeQuality; fill-rule:evenodd; clip-rule:evenodd"
viewBox="0 0 500.1 110.18"
 xmlns:xlink="http://www.w3.org/1999/xlink"
 xmlns:xodm="http://www.corel.com/coreldraw/odm/2003">
 <defs>
  <style type="text/css">
   <![CDATA[
    .fil0 {fill:white}
   ]]>
  </style>
 </defs>
 <g id="Camada_x0020_1">
  <metadata id="CorelCorpID_0Corel-Layer"/>
  <path class="fil0" d="M442.07 26.3c8.16,0.45 14.05,6.34 14.96,14.05 0.45,4.08 0.45,10.43 0.45,14.51 0,4.99 0,9.07 -0.45,13.15 -1.36,9.52 -8.16,14.96 -14.96,14.96l-11.79 0c-6.35,0 -13.61,-5.44 -14.96,-14.96 -0.46,-4.08 -0.46,-8.16 -0.46,-12.7 0,-4.53 0,-10.88 0.46,-14.96 0.9,-7.71 7.25,-13.6 15.41,-14.05 1.81,-0.46 3.17,-0.46 5.44,-0.46l5.9 0.46zm-436.63 -24.49l32.19 0c3.18,0 5.44,2.27 5.44,4.99l0 96.57c0,3.18 -2.26,5.45 -5.44,5.45l-32.19 0c-2.72,0 -5.44,-2.27 -5.44,-5.45l0 -96.57c0,-2.72 2.72,-4.99 5.44,-4.99zm91.13 107.01c-9.52,0 -17.68,-6.35 -20.4,-14.97l-22.22 -85.69c0,-0.45 0,-0.91 0,-1.36 0,-2.72 2.27,-4.99 5.45,-4.99l33.09 0c2.72,0 4.99,1.82 5.44,4.08l17.23 71.64c0,0.91 0.91,1.81 2.27,1.81 0.91,0 1.81,-0.9 1.81,-1.81l17.69 -71.64c0.45,-2.26 2.72,-4.08 4.98,-4.08l18.59 0c3.18,0 5.44,2.27 5.44,4.99 0,0.45 0,0.91 0,1.36l-21.3 83.88c-2.27,9.52 -9.98,16.78 -20.86,16.78l-27.21 0zm165.04 -27.21c3.17,0 5.44,2.72 5.44,5.44l0 16.32c0,3.18 -2.27,5.45 -5.44,5.45l-64.83 0c-11.79,0 -21.31,-9.53 -21.31,-21.31l0 -64.39c0,-11.78 9.52,-21.31 21.31,-21.31l64.83 0c3.17,0 5.44,2.27 5.44,4.99l0 15.87c0,3.17 -2.27,5.44 -5.44,5.44l-39.9 0c-3.17,0 -5.44,1.81 -5.44,4.99l0 9.97 34.01 -0.45c2.72,0 5.44,2.72 5.44,5.44l0 13.6c0,3.18 -2.72,5.44 -5.44,5.44l-34.01 0 0 9.07c0,3.17 2.27,5.44 5.44,5.44l39.9 0zm12.24 -26.75c0,-5.89 0.46,-11.79 1.82,-17.68 3.17,-18.59 18.13,-33.55 37.18,-35.82 6.8,-0.91 14.96,-1.36 23.57,-1.36 9.52,0 18.14,0.45 25.39,1.36 2.72,0.45 4.54,2.72 4.54,5.44l0 16.32c0,3.18 -2.27,5.45 -4.99,5.45 0,0 -8.62,-0.46 -13.15,-0.46 -5.44,0 -9.97,0 -14.96,0.46 -8.16,0.45 -14.06,6.34 -14.96,14.05 -0.46,4.08 -0.91,8.16 -0.91,12.24l0 0.45c0,4.09 0.45,8.16 0.91,12.24 0.9,7.71 6.35,13.61 14.96,14.51 4.53,0.46 9.97,0.91 14.96,0.91 4.53,0 13.15,-0.45 13.15,-0.45 2.72,0 4.99,2.27 4.99,5.44l0 16.32c0,2.72 -1.82,4.99 -4.54,5.44 -7.25,0 -15.87,0.46 -25.39,0.46 -8.61,0 -16.77,-0.91 -23.57,-1.36 -19.05,-2.73 -34.01,-17.23 -37.18,-36.28 -1.36,-5.44 -1.82,-11.33 -1.82,-17.23 0,-18.59 0,18.14 0,-0.45zm163.68 -54.86c8.62,0 16.78,0.45 23.58,1.36 19.04,2.27 34.46,17.23 37.63,35.82 0.45,3.17 1.36,10.43 1.36,17.68 0,7.71 -0.91,14.96 -1.36,17.68 -3.17,19.05 -18.59,33.55 -37.63,36.28 -6.8,0.45 -14.96,1.36 -23.58,1.36l-2.72 0c-9.07,0 -16.77,-0.91 -24.03,-1.36 -19.04,-2.73 -34,-17.23 -37.18,-36.28 -0.45,-2.72 -1.36,-9.97 -1.36,-17.68 0,-7.25 0.91,-14.51 1.36,-17.68 3.18,-18.59 18.14,-33.55 37.18,-35.82 7.26,-0.91 14.96,-1.36 23.58,-1.36l3.17 0z"/>
 </g>
</svg>
