<?xml version="1.0" encoding="UTF-8"?>
<!DOCTYPE svg PUBLIC "-//W3C//DTD SVG 1.1//EN" "http://www.w3.org/Graphics/SVG/1.1/DTD/svg11.dtd">
<!-- Creator: CorelDRAW 2021 (64 Bit) -->
<svg xmlns="http://www.w3.org/2000/svg" xml:space="preserve" width="1417px" height="621px" version="1.1" style="shape-rendering:geometricPrecision; text-rendering:geometricPrecision; image-rendering:optimizeQuality; fill-rule:evenodd; clip-rule:evenodd"
viewBox="0 0 26403.83 11575.27"
 xmlns:xlink="http://www.w3.org/1999/xlink"
 xmlns:xodm="http://www.corel.com/coreldraw/odm/2003">
 <defs>
  <style type="text/css">
   <![CDATA[
    .fil0 {fill:white;fill-rule:nonzero}
   ]]>
  </style>
 </defs>
 <g id="Camada_x0020_1">
  <metadata id="CorelCorpID_0Corel-Layer"/>
  <path class="fil0" d="M13371.85 5812.43c134.13,345.53 597.42,575.96 1304.42,648.48 267.07,27.47 540.63,41.42 812.98,41.42 1216.52,0 2061.23,-434.48 2069.71,-437.29 0,0 1442.82,-759.63 1442.82,-2282.08 0,-995.78 -491.95,-1999.58 -2094.78,-2857.42 -858.36,1095.1 -1817.67,2161.73 -3088.65,3629.59 -399.7,461.29 -569.44,940.14 -446.5,1257.3zm5574.48 4554.78l-833.03 0 191.97 -499.74 11.2 -29.22 3 0 170.07 -433.36 42.15 -107.8 41.97 108 348.53 899.57 24.14 62.55zm-492.29 -1915.7c-327.8,0 -468.79,363.93 -468.79,363.93l-1127.84 2707.8 481.63 0c294.47,0 430.47,-270.02 455.91,-327.2l91.38 -237.82 1274.16 0 11.64 28.39 216.25 536.63 830.68 0 -1306.18 -3071.73 -458.84 0zm1817.12 84.83c-93.3,94.77 -93.92,236.07 -93.92,237.5l0 353.59 938.08 0 0 2395.83 444.34 0c13.49,0 332.04,-5.28 332.04,-323.7l0 -2072.13 45.19 0c0,0 190.96,0.22 562.6,0.22 321.83,0 330.12,-339.63 330.23,-354.16l0 -323.04 -2322.11 0c-100.85,0 -180.4,28.9 -236.45,85.89zm-8385.51 2332.45l0 -443.28c0,-60.3 39.14,-149.88 147.29,-149.88l1353.86 0 0 -600.1 -1501.15 0 0 -421.25c0,-59.89 39.14,-149.25 147.29,-149.25 96.01,0 1264.34,-0.13 1510.24,-0.13l0 -654.47 -2102.57 0c-98.21,0 -175.79,28.37 -230.26,84.21 -92.6,94.67 -91.94,237.38 -91.94,238.94l0 2749.61 2122.22 0c13.16,0 325,-5.28 325,-323.65l0 -330.75 -1679.98 0zm-2193.53 -1320.46c0,259.67 -195.47,420.92 -509.9,420.92l-616.96 0 0 -701.19c1.14,-60.6 41.33,-149.67 147.44,-149.67 34.01,0.11 96.84,0.11 165.74,0.11l299.31 -0.11c327.07,0 514.37,153.41 514.37,420.92l0 9.02zm114.23 897.37l50.78 -21.84c281,-120.9 615.66,-380.24 615.66,-929.61l0 -9.22c0,-298.81 -85.95,-529.14 -263.28,-704.1 -212.31,-219.37 -544.2,-330.5 -986.99,-330.5l-1114.59 0c-313.51,0 -318.66,310.3 -318.9,323.57l0 2749.19 459.68 0c12.72,0 316.55,-5.28 316.55,-322.42l0 -635.84 449.22 0 13.43 20.38 616.36 937.88 890.88 0 -697.7 -1031.4 -31.1 -46.09zm-3389.88 128.89c0,209.73 -172.29,334.97 -460.84,334.97l-715.15 0 0 -523.6c0,-60.7 39.11,-151.03 146.96,-151.03l559.43 0c423.89,0 469.6,231.19 469.6,330.63l0 9.03zm-1175.99 -908.7l0 -452.07c0,-109.28 87.91,-149.38 146.74,-149.71l461.28 0c278.67,0 438.35,115.51 438.35,316.95l0 8.91c0,120.24 -59.2,321.59 -456.13,321.59l-590.24 0 0 -45.67zm1952.26 1030.7l0 -9.02c0,-368.63 -181.87,-593.7 -589.82,-729.5l-112.72 -37.49 108.64 -47.8c302.13,-133.36 455.37,-356.56 455.37,-663.45l0 -9.22c0,-191.18 -63.13,-352.27 -187.68,-478.3 -180.59,-182.61 -449.29,-271.38 -821.41,-271.38l-1235.35 0c-317.76,0 -323.26,310.43 -323.33,323.57l0 2749.24 1567.59 0c713.04,0 1138.71,-309 1138.71,-826.65zm-4305.76 -1922.46l0 2749.11 460.89 0c12.94,0 319.84,-5.59 319.84,-321.1l0 -2740.26 -462.95 -11.43c-312.61,0 -317.58,310.43 -317.78,323.68zm-2110.69 2072.15l0 -2395.83 -455.32 0c-312.19,0 -320.75,310.83 -320.97,324.1l0 2748.69 1971.17 0c12.81,0 319.54,-5.59 319.54,-332.48l0 -344.48 -1514.42 0zm14215.34 0l0 -2395.83 -455.21 0c-313.99,0 -320.9,310.61 -320.9,323.88l0 2748.91 1970.94 0c12.99,0 319.65,-5.5 319.65,-332.48l0 -344.48 -1514.48 0zm10618.04 -861.69c0,507.9 -361.25,891.16 -840.32,891.16 -473.74,0 -844.83,-395.36 -844.83,-900.07l0 -9.03c0,-508.08 359.29,-891.18 835.87,-891.18 476.23,0 849.28,395.45 849.28,900.21l0 8.91zm329.82 -1144.23c-303.41,-299.53 -718.96,-464.61 -1170.14,-464.61 -921.64,0 -1643.51,702.76 -1643.51,1599.93l0 8.91c0,430.67 164.9,830.65 464.28,1126.36 303.39,299.44 719.07,464.32 1170.27,464.32 921.6,0 1643.44,-702.62 1643.44,-1599.59l0 -9.03c0,-430.56 -164.81,-830.57 -464.34,-1126.29zm-16151.63 -1155.39c18.32,8.8 34.87,-13.16 18.43,-27.87 -425.08,-376.61 -1099.18,-1556.14 630.45,-2935.53 944.38,-753.27 4857.09,-3373.99 5935.62,-4075.97 -908.99,-408.44 -1991.42,-645.62 -3153.37,-645.62 -2980.91,0 -5817.02,1869.63 -5817.02,4113.22 0,1548.62 839.89,2823.85 2385.89,3571.77z"/>
 </g>
</svg>
