<?xml version="1.0" encoding="UTF-8"?>
<!DOCTYPE svg PUBLIC "-//W3C//DTD SVG 1.1//EN" "http://www.w3.org/Graphics/SVG/1.1/DTD/svg11.dtd">
<!-- Creator: CorelDRAW 2021 (64 Bit) -->
<svg xmlns="http://www.w3.org/2000/svg" xml:space="preserve" width="1031px" height="576px" version="1.1" style="shape-rendering:geometricPrecision; text-rendering:geometricPrecision; image-rendering:optimizeQuality; fill-rule:evenodd; clip-rule:evenodd"
viewBox="0 0 199.89 111.55"
 xmlns:xlink="http://www.w3.org/1999/xlink"
 xmlns:xodm="http://www.corel.com/coreldraw/odm/2003">
 <defs>
  <style type="text/css">
   <![CDATA[
    .fil0 {fill:white}
   ]]>
  </style>
 </defs>
 <g id="Camada_x0020_1">
  <metadata id="CorelCorpID_0Corel-Layer"/>
  <path class="fil0" d="M12.79 110.42c-0.38,-0.79 -0.77,-9.07 -0.74,-10.59 0.14,-5.48 0.48,-10.54 1.45,-15.7 0.9,-4.78 2.16,-9.25 3.69,-13.67 1.97,-5.69 4.52,-10.8 7.38,-15.6 2.23,-3.74 6.07,-9.25 9.15,-12.55l3.38 -3.7c1.38,-1.49 2.98,-2.83 4.5,-4.17 9.03,-7.98 19.6,-14.11 31.08,-17.95 7.59,-2.53 16.42,-4.27 24.65,-4.27 8.11,0 12.76,0.26 20.54,1.8 1.5,0.3 3.2,0.67 4.68,1.11 8.86,2.6 16.16,5.56 23.93,10.46l6.83 4.74c2.18,1.62 4.36,3.39 6.27,5.31 1,1.02 1.95,1.78 2.97,2.81l5.36 6.05 4.93 6.64c5.62,8.43 7.95,13.99 11.15,23.42 0.47,1.39 0.86,3.08 1.23,4.55 0.83,3.32 1.96,8.63 2.12,12.35 0.04,0.81 0.09,1.81 0.19,2.7 0.17,1.65 0.09,3.74 0.22,5.55 0.1,1.41 -0.36,9.95 -0.73,10.71l10.29 0c3.06,0.01 1.69,0.36 2.36,-4.54 0.16,-1.14 0.01,-2.35 0.04,-3.5 0.03,-1.07 0.21,-2.04 0.17,-3.38 -0.02,-0.79 -0.14,-0.8 -0.17,-1.59 -0.01,-0.57 0.01,-1.2 0.01,-1.78 0.03,-6.64 -2.1,-18.03 -4,-23.96 -1.81,-5.65 -2.62,-7.53 -4.66,-12.54 -1.64,-4.03 -3.86,-7.72 -6.08,-11.45 -2.78,-4.67 -6.1,-8.93 -9.58,-13.08l-2.52 -2.78c-1.67,-2.18 -4.12,-4.02 -6.07,-5.98 -2.83,-2.85 -9.68,-7.73 -12.93,-9.9 -1.42,-0.94 -2.8,-1.74 -4.28,-2.63 -13.18,-7.95 -31.52,-13.31 -49.86,-13.31 -18.03,0 -32.86,4.79 -44.95,10.82l-3.33 1.81c-6.75,4.03 -10.47,6.43 -16.38,11.43 -2.51,2.13 -6.16,5.25 -8.05,7.7l-3.35 3.72c-1.12,1.17 -2.1,2.52 -3.08,3.83 -0.53,0.7 -0.92,1.23 -1.45,1.93 -2.55,3.38 -4.62,7.1 -6.81,10.71 -1.19,1.95 -2.62,4.82 -3.5,6.95 -2.02,4.87 -3.03,7.39 -4.75,12.77 -1.06,3.31 -1.99,7.38 -2.62,11.2l-1.19 9.25c-0.07,0.58 0.01,1.12 -0.07,1.7 -0.07,0.51 -0.12,0.89 -0.12,1.65 0.01,2.49 -0.2,4.21 -0.01,6.6 0.1,1.12 -0.07,2.4 0.02,3.52 0.45,5.4 -0.18,4.85 2.08,4.83l10.61 0zm88.56 -16.23l2.25 4.5c0.29,0.56 0.65,0.92 0.8,1.61l-6.1 0c0.6,-1.14 2.36,-5.31 3.05,-6.11zm-27.97 17.36l17.2 0 1.8 -2.38c0.54,-0.68 0.37,-0.68 0.77,-0.68l16.4 0c0.74,0 2.58,3.06 3.37,3.06l16.4 0c0.88,0 0.13,-0.69 -0.48,-1.61 -0.45,-0.67 -0.81,-1.25 -1.26,-1.96l-14.91 -22.86c-0.45,-0.67 -2.33,-3.41 -2.48,-3.95l-16.88 0c-0.14,0.56 -0.81,1.38 -1.15,1.9l-13.82 20.73c-0.85,1.26 -4.82,7.18 -4.96,7.75zm57.71 0l15.75 0c0.77,0 0.48,-1.42 0.48,-2.9l0 -10.12c0.91,0.48 1.58,1.06 2.41,1.61 4.57,3 9.61,6.79 14.24,9.86 0.61,0.41 1.9,1.55 2.64,1.55l15.27 0 0 -30.38 -14.47 0c-0.77,0 -0.48,1.41 -0.48,2.89l0 10.61c-1.71,-1.14 -3.39,-2.23 -5.18,-3.34 -0.45,-0.29 -0.83,-0.56 -1.25,-0.84l-9.29 -5.98c-0.46,-0.31 -0.82,-0.5 -1.29,-0.8l-2.63 -1.71c-0.29,-0.19 -1.12,-0.83 -1.42,-0.83l-14.78 0 0 30.38zm-110.42 0l15.1 0c0.78,0 0.49,-1.52 0.49,-2.25l0 -8.52c0.32,0.22 0.31,0.26 0.6,0.52l9.52 8.48c0.97,-0.26 2.66,-2.26 3.66,-3.26 0.48,-0.49 0.81,-0.64 1.29,-1.12l4.86 -4.62 0 8.36c0,0.75 -0.31,2.41 0.48,2.41l14.62 0c0.38,0 0.49,-0.11 0.49,-0.49l0 -29.41c0,-0.37 -0.11,-0.48 -0.49,-0.48l-14.14 0c-0.55,0 -2.04,1.96 -2.85,2.77l-4.02 4.34c-0.94,0.94 -3.5,3.82 -4.22,4.3 -0.38,-0.72 -2.93,-3.44 -3.67,-4.36l-5.05 -5.72c-0.38,-0.39 -0.87,-1.33 -1.41,-1.33l-15.26 0 0 30.38z"/>
 </g>
</svg>
