<?xml version="1.0" encoding="UTF-8"?>
<!DOCTYPE svg PUBLIC "-//W3C//DTD SVG 1.1//EN" "http://www.w3.org/Graphics/SVG/1.1/DTD/svg11.dtd">
<!-- Creator: CorelDRAW 2021 (64 Bit) -->
<svg xmlns="http://www.w3.org/2000/svg" xml:space="preserve" width="1420px" height="708px" version="1.1" style="shape-rendering:geometricPrecision; text-rendering:geometricPrecision; image-rendering:optimizeQuality; fill-rule:evenodd; clip-rule:evenodd"
viewBox="0 0 1521.52 759.07"
 xmlns:xlink="http://www.w3.org/1999/xlink"
 xmlns:xodm="http://www.corel.com/coreldraw/odm/2003">
 <defs>
  <style type="text/css">
   <![CDATA[
    .fil1 {fill:white}
    .fil0 {fill:white;fill-rule:nonzero}
   ]]>
  </style>
 </defs>
 <g id="Camada_x0020_1">
  <metadata id="CorelCorpID_0Corel-Layer"/>
  <g id="_2101545023024">
   <path id="path6825" class="fil0" d="M257.75 750.45c-23.06,0 -33.2,-17.75 -33.46,-57.29l75.53 0c-0.5,-39.03 -16.47,-59.81 -46.38,-59.81 -30.42,0 -49.43,24.59 -49.43,63.62 0,39.03 19.01,61.84 51.71,61.84 24.84,0 41.06,-15.46 44.36,-41.57l-10.14 0c-3.04,21.55 -14.19,33.21 -32.19,33.21zm428.41 1.52c-18.25,0 -27.89,-19.01 -27.89,-55.26 0,-36.75 8.87,-54.74 27.12,-54.74 18.76,0 28.39,19.26 28.39,56.52 0,35.23 -9.38,53.48 -27.62,53.48zm-461.36 -67.93c2.53,-29.14 12.17,-44.1 28.39,-44.1 16.47,0 24.84,14.19 26.36,44.1l-54.75 0zm751.51 -2.37l56.64 0 0 13.1 -56.64 0 0 -13.1zm125.73 -10.05c13.43,0 21.03,2.28 26.86,8.11 5.83,5.83 9.12,16.73 9.12,28.9 0,25.34 -12.67,39.54 -35.23,39.54l-9.12 0c-13.43,0 -15.72,-2.03 -15.72,-13.18l0 -63.37 24.09 0zm323.67 84.41l68.69 -113.05 -31.17 0c-16.48,0 -20.53,3.55 -29.66,26.36l-5.07 0 5.83 -32.95 87.19 0 -68.93 113.05 29.65 0c17.23,0 24.33,-6.85 31.93,-29.91l5.33 0 -6.59 36.5 -87.2 0zm-135.31 -112.29l0 -4.31c14.7,-2.03 23.32,-4.05 33.45,-7.6 1.27,5.82 2.03,12.42 2.54,22.05 9.12,-13.69 19.52,-19.77 34.21,-19.77 15.22,0 28.39,7.86 33.46,20.28 2.54,6.08 3.8,13.17 3.8,22.81l0 60.83c0,10.9 2.54,12.92 18,13.68l0 5.08c-13.43,-1.27 -18.5,-1.53 -27.63,-1.53 -9.38,0 -14.44,0.26 -27.62,1.53l0 -5.08c13.69,-0.5 16.98,-3.04 16.98,-13.18l0 -62.09c0,-22.05 -6.59,-30.92 -22.81,-30.92 -17.23,0 -26.36,10.89 -26.36,31.68l0 61.33c0,10.14 3.29,12.68 16.47,13.18l0 5.07c-13.18,-1.26 -18.25,-1.52 -27.37,-1.52 -8.87,0 -14.2,0.26 -27.37,1.52l0 -5.07c15.45,-0.76 17.99,-2.78 17.99,-13.68l0 -78.32 0 -3.8c-0.25,-10.39 -1.77,-11.92 -14.45,-11.92 -0.76,0 -2.02,-0.25 -3.29,-0.25zm-88.45 40.3c2.54,-29.14 12.17,-44.1 28.39,-44.1 16.48,0 24.84,14.19 26.36,44.1l-54.75 0zm32.96 66.41c-23.07,0 -33.21,-17.75 -33.46,-57.29l75.53 0c-0.51,-39.03 -16.47,-59.81 -46.38,-59.81 -30.42,0 -49.43,24.59 -49.43,63.62 0,39.03 19.01,61.84 51.71,61.84 24.84,0 41.06,-15.46 44.36,-41.57l-10.14 0c-3.04,21.55 -14.2,33.21 -32.19,33.21zm-156.96 -155.63l21.55 0c21.29,0 30.67,10.4 30.67,33.97 0,11.65 -2.79,20.02 -8.37,26.61 -5.57,6.34 -12.42,8.36 -26.61,8.36l-17.24 0 0 -68.94zm74.77 33.46c0,-13.18 -5.57,-24.84 -15.2,-32.19 -8.62,-6.34 -18.51,-9.13 -34.98,-9.13l-66.66 0 0 6.34c18.25,1.02 20.79,3.05 20.79,16.73l0 122.93c0,13.69 -2.04,15.46 -20.79,16.98l0 6.09 64.12 0c18.76,0 28.9,-2.29 39.54,-8.88 12.68,-8.11 21.04,-23.57 21.04,-39.54 0,-13.68 -5.82,-26.1 -15.71,-33.71 -5.33,-4.05 -10.9,-6.33 -20.02,-8.11 18.25,-6.84 27.87,-19.77 27.87,-37.51zm-653.41 2.79l0 41.82 -5.57 0c-4.57,-22.05 -13.94,-32.7 -29.4,-32.7 -19.01,0 -30.17,20.53 -30.17,56.78 0,35.49 9.89,53.48 29.4,53.48 15.72,0 25.1,-11.16 28.14,-33.46l10.39 0c-3.29,27.12 -17.74,41.82 -40.55,41.82 -29.4,0 -49.43,-24.84 -49.43,-61.84 0,-37.77 20.28,-63.62 50.19,-63.62 10.9,0 17.74,2.79 25.85,10.64l6.85 -12.92 4.3 0zm234.5 99.35l0 -146.33c-12.68,3.38 -24.09,5.41 -38.27,6.93l0 4.31c15.96,0 17.99,1.78 17.99,14.95l0 44.36c-9.38,-15.21 -16.73,-19.77 -30.41,-19.77 -27.13,0 -46.13,25.6 -46.13,62.1 0,36.5 19.26,62.1 46.88,62.1 14.45,0 24.34,-6.59 31.43,-20.79 1.02,9.63 1.02,10.65 3.55,20.28 10.4,-3.3 14.7,-4.31 29.66,-6.08l3.8 -0.51 0 -4.31c-16.98,-0.51 -18.5,-1.78 -18.5,-17.24zm145.42 28.65l0 -42.33 5.57 -0.25c4.57,23.06 15.21,34.21 32.95,34.21 14.96,0 26.11,-9.88 26.11,-22.81 0,-8.62 -4.82,-14.45 -17.23,-20.02l-9.64 -4.32 -11.66 -5.32c-18.5,-8.61 -24.33,-15.71 -24.33,-30.41 0,-20.02 15.72,-33.71 38.02,-33.71 9.89,0 17.24,2.28 25.85,8.11l4.31 -10.39 4.56 0 0 39.28 -5.83 0c-2.28,-20.27 -10.64,-29.9 -26.61,-29.9 -13.43,0 -23.82,9.12 -23.82,21.03 0,10.14 3.79,13.44 26.86,23.57l10.65 4.57c19.26,8.36 26.11,16.47 26.11,31.43 0,21.29 -16.99,36.5 -40.82,36.5 -11.65,0 -20.78,-3.05 -30.41,-10.65l-6.08 11.41 -4.56 0zm-96.54 -75.03c2.53,-29.14 12.17,-44.1 28.39,-44.1 16.47,0 24.84,14.19 26.36,44.1l-54.75 0zm32.95 66.41c-23.06,0 -33.2,-17.75 -33.46,-57.29l75.53 0c-0.5,-39.03 -16.47,-59.81 -46.37,-59.81 -30.42,0 -49.43,24.59 -49.43,63.62 0,39.03 19.01,61.84 51.7,61.84 24.84,0 41.06,-15.46 44.36,-41.57l-10.14 0c-3.04,21.55 -14.2,33.21 -32.19,33.21zm-274.7 -66.41c2.53,-29.14 12.16,-44.1 28.38,-44.1 16.48,0 24.84,14.19 26.36,44.1l-54.74 0zm32.95 66.41c-23.07,0 -33.21,-17.75 -33.46,-57.29l75.53 0c-0.51,-39.03 -16.47,-59.81 -46.38,-59.81 -30.42,0 -49.43,24.59 -49.43,63.62 0,39.03 19.01,61.84 51.71,61.84 24.84,0 41.06,-15.46 44.35,-41.57l-10.13 0c-3.04,21.55 -14.19,33.21 -32.19,33.21zm-258.98 -107.72l0 -4.57c14.45,-1.26 23.07,-2.78 33.46,-5.83 1.27,9.38 1.77,13.44 2.28,21.04l0 2.79c5.58,-14.45 16.47,-22.81 29.66,-22.81 12.67,0 22.05,8.36 22.05,20.53 0,7.35 -4.31,12.17 -10.65,12.17 -5.83,0 -10.39,-3.55 -10.39,-8.62 0,-0.51 0.26,-1.52 0.51,-2.53l0.5 -2.54 0 -2.28c0,-3.55 -3.04,-6.09 -7.6,-6.09 -13.18,0 -21.55,15.97 -21.55,41.06l0 52.98c0,10.9 2.54,12.92 18,13.68l0 5.08c-13.94,-1.27 -19.26,-1.53 -28.13,-1.53 -9.13,0 -14.45,0.26 -28.39,1.53l0 -5.08c15.46,-0.76 18.25,-2.78 18.25,-13.68l0 -78.83 0 -4.05c-0.25,-10.9 -1.52,-12.17 -14.7,-12.42l-3.3 0zm-280.44 -40.56l-0.47 12.27 6.46 3.93 -5.99 -16.2zm135.8 95.1l0.81 36.45c0.26,13.68 2.54,15.71 20.79,16.98l0 6.08c-15.97,-1.52 -22.05,-2.02 -31.68,-2.02 -9.64,0 -15.72,0.5 -31.69,2.02l0 -6.08c17.24,-1.01 21.04,-3.8 21.04,-15.71l0 -1.27 -0.86 -49.57 -1.42 -81.72 -24.42 66.01 -17.4 47.03 -3.04 8.37 -3.55 9.37 -3.29 9.63 -2.79 8.37 -3.81 0 -2.78 -8.11 -3.55 -9.89 -3.55 -9.88 -3.05 -8.87 -35.57 -96.09 -6.46 -3.93 -4.6 119.28 0 2.28c0,11.15 3.29,13.44 21.04,14.7l0 6.08c-12.93,-1.01 -18,-1.26 -25.1,-1.26 -7.09,0 -12.16,0.25 -25.34,1.26l0 -6.08c17.74,-1.27 20.27,-3.3 20.78,-16.98l5.31 -124.09 -12.27 -7.46 12.27 7.46 0.02 -0.36 0 -1.52c0,-11.66 -3.55,-14.19 -21.04,-15.21l0 -6.34c9.88,0.76 13.68,1.02 20.78,1.02 9.38,0 14.45,-0.26 24.08,-1.27l18.07 49.16 29.07 79.09 18.7 -50.05 29.21 -78.2c11.41,1.01 16.73,1.27 24.33,1.27 6.34,0 10.39,-0.26 20.02,-1.02l0 6.34c-17.23,1.02 -21.04,3.55 -21.04,14.96l0 1.77 1.98 88z"/>
   <path class="fil1" d="M563.19 371.83c3.22,-2.56 92.83,-35.59 104.64,-39.98l79.11 -29.59c15.37,-5.86 12.73,-5.48 28.03,0.28 35.62,13.4 70.14,26.49 105.68,39.56 17.5,6.44 34.97,13.09 52.61,19.63l19.86 7.5c2.32,0.86 4.86,1.17 4.37,4.52 -0.37,2.44 -12.81,19.12 -14.93,21.69 -22.97,27.93 -46.11,48.03 -79.76,64.78 -90.94,45.25 -199.07,23.19 -268.31,-46.62 -14.74,-14.87 -20.31,-24.34 -31.3,-41.77zm-4.09 -6.19c-1.28,-1.45 -1.01,-1.29 -1.85,-3.16 -0.5,-1.09 -0.74,-1.76 -1.26,-2.96l-8.04 -18.61c-3.45,-8.4 -6.78,-17.31 -9.22,-26.54 -38.54,-145.53 63.58,-280.93 207.63,-291.02 8,-0.56 11.92,-2.24 10.61,6.86 -3.94,27.52 -10.61,63.1 -15.4,91.41l-15.29 91.77c-2.36,14.41 -1.42,16.84 -10.65,24.57 -38.14,31.96 -79.04,64.28 -117.2,96.04 -5.19,4.32 -36.37,30.38 -39.33,31.64zm205.3 -342.55c45.2,0.28 85.39,14.99 116.72,33.76 94.98,56.89 137.3,178.18 93.25,283.47 -2.54,6.08 -8.9,20.13 -12.64,24.46 -3.73,-1.66 -15.02,-11.56 -18.91,-14.73l-55.64 -45.37c-25.28,-20.19 -48.31,-40.04 -73.92,-60.75 -7.56,-6.12 -14.33,-10.08 -15.89,-17.81l-32.97 -203.03zm-256.96 241.42c7.62,140.68 122.28,246.88 264.21,242.37 75.37,-2.39 139.31,-42.06 173.73,-79.85 45.6,-50.05 71.57,-110.63 68.82,-184.26 -5.03,-134.9 -121.37,-249.21 -264.31,-242.49 -37.75,1.78 -72.27,11.49 -100.9,25.85 -33.28,16.69 -48.32,29.94 -73.1,53.85 -2.74,2.64 -4.67,5.28 -7.59,8.53 -40.52,45.14 -64.22,113.87 -60.86,176z"/>
  </g>
 </g>
</svg>
