<?xml version="1.0" encoding="UTF-8"?>
<!DOCTYPE svg PUBLIC "-//W3C//DTD SVG 1.1//EN" "http://www.w3.org/Graphics/SVG/1.1/DTD/svg11.dtd">
<!-- Creator: CorelDRAW 2021 (64 Bit) -->
<svg xmlns="http://www.w3.org/2000/svg" xml:space="preserve" width="1417px" height="410px" version="1.1" style="shape-rendering:geometricPrecision; text-rendering:geometricPrecision; image-rendering:optimizeQuality; fill-rule:evenodd; clip-rule:evenodd"
viewBox="0 0 376.59 108.89"
 xmlns:xlink="http://www.w3.org/1999/xlink"
 xmlns:xodm="http://www.corel.com/coreldraw/odm/2003">
 <defs>
  <style type="text/css">
   <![CDATA[
    .fil0 {fill:white}
   ]]>
  </style>
 </defs>
 <g id="Camada_x0020_1">
  <metadata id="CorelCorpID_0Corel-Layer"/>
  <path class="fil0" d="M13.16 0.74c-7.06,1.97 -12.57,8.58 -13.03,17.27 -0.02,20.13 -0.03,40.26 -0.03,60.39 0,10.55 -1.24,18.4 5.17,25.02 6.77,6.99 13.5,5.21 25.02,5.21l302.37 0c6.23,0 25.59,0.79 30.34,-0.37 7.03,-1.72 12.56,-8.64 13.07,-17.22 1.14,-19.15 0.05,-40.91 0.05,-60.41 0,-10.2 1.06,-18.9 -5.19,-25.2 -7.1,-7.14 -12.96,-5.18 -25.2,-5.18l-302.37 0c-6.06,0 -25.87,-0.72 -30.2,0.49zm5.09 12.2c-4.28,0.85 -5.62,3.44 -5.61,8.22 0.05,21.77 -0.42,46.45 0,67.63 0.09,4.47 2.09,6.81 6.37,7.22 4.01,0.39 9.79,0.05 13.98,0.05l298.32 0c5.27,0 23.53,0.67 27.3,-0.26 3.93,-0.98 4.96,-4.05 4.95,-8.37 -0.03,-21.17 0.53,-47.43 0,-67.62 -0.24,-9.45 -11.42,-6.99 -20.08,-6.99l-298.32 0c-5.76,0 -22.51,-0.75 -26.91,0.12zm2.82 71.61l21.56 -0.01 0 -26.69 24.43 26.64 23.4 -0.01 0.13 -60.13 -23.92 -0.14 0.01 26.69 -22.42 -26.69 -23.2 0 0.01 60.34zm256.4 -0.12l22.61 0.11 3.1 -7.71 25.98 -0.01 2.79 7.66 22.95 0.07 -26.42 -60.19 -24.85 -0.15 -26.16 60.22zm30.2 -19.23l16.59 0.07 -8.45 -21.26 -8.14 21.19zm-127.16 19.25l21.19 0.09 0.11 -26.42 15.6 26.41 14.31 0.02 15.68 -26.77 0.17 26.71 21.35 0.06 0.14 -60.27 -34.64 -0.07 -9.88 20.83 -8.58 -20.73 -35.47 -0.09 0.02 60.23zm-81.69 -25.71c2.1,14.44 14.58,27.97 42.35,25.59 19.32,-1.65 34.25,-13.64 30.98,-35.12 -1.79,-11.79 -9.48,-19.38 -20.23,-22.85 -8,-2.6 -19.66,-3.01 -29.76,-0.58 -16.12,3.87 -25.83,15.8 -23.34,32.96zm33.39 -18.76c-17.43,4.1 -11.57,33.59 6.66,28.93 16.94,-4.33 12.23,-33.38 -6.66,-28.93zm-116.69 -32.86c-9.03,2.74 -9.08,9.29 -9.08,19.46l0 57.23c0,4.83 -0.47,8.81 1.91,12.47 1.75,2.68 4.39,5.15 8.52,5.82l315.34 0.19c5.6,0 24.41,0.66 28.41,-0.47 3.84,-1.1 6.06,-3.38 7.61,-6.31 2.09,-3.94 1.55,-8.3 1.55,-13.06l0 -57.23c0,-4.98 0.44,-8.79 -1.89,-12.7 -1.44,-2.41 -4.77,-5.31 -8.65,-5.82l-315.43 -0.13c-5.57,0 -24.36,-0.64 -28.29,0.55z"/>
 </g>
</svg>
