<?xml version="1.0" encoding="UTF-8"?>
<!DOCTYPE svg PUBLIC "-//W3C//DTD SVG 1.1//EN" "http://www.w3.org/Graphics/SVG/1.1/DTD/svg11.dtd">
<!-- Creator: CorelDRAW 2021 (64 Bit) -->
<svg xmlns="http://www.w3.org/2000/svg" xml:space="preserve" width="1505px" height="376px" version="1.1" style="shape-rendering:geometricPrecision; text-rendering:geometricPrecision; image-rendering:optimizeQuality; fill-rule:evenodd; clip-rule:evenodd"
viewBox="0 0 1240.43 310.11"
 xmlns:xlink="http://www.w3.org/1999/xlink"
 xmlns:xodm="http://www.corel.com/coreldraw/odm/2003">
 <defs>
  <style type="text/css">
   <![CDATA[
    .fil0 {fill:white}
   ]]>
  </style>
 </defs>
 <g id="Camada_x0020_1">
  <metadata id="CorelCorpID_0Corel-Layer"/>
  <path class="fil0" d="M251.49 232.51c1.81,-6.62 6.51,-16.6 9.28,-23.52 3.11,-7.79 6.2,-15.51 9.37,-23.42l37.39 -93.8c6.27,-15.67 4.24,-14.5 10.02,-14.41l40.2 -0.05 62.71 155.19 -45.34 0.08c-1.48,-0.44 -4.07,-10.13 -4.74,-12.09 -1.3,-3.84 -2.46,-8.32 -4.03,-12.08l-61.09 -0.03 -8.71 24.2 -45.06 -0.07zm65.07 -55.09l-0.51 0.6 39.44 0.34c-0.09,-2.55 -0.06,-0.92 -0.63,-1.52l-19.21 -55.51c-1.52,2.11 -18.74,52.87 -19.09,56.09zm805.53 -1.79l0.84 1.32 0.13 -98.85 39.84 0 0 154.48 -60.05 -0.04c-1.49,-4.26 -53.03,-96.23 -55.01,-99.03l0 99.08 -40.28 -0.19 0 -154.29 58.18 -0.01 56.35 97.53zm-1044.04 57.02l0 -154.8 96.97 -0.16c12.56,-1.38 25.24,8.46 30.61,14.13 26.16,27.65 13.37,73.42 -21.09,83.98 0.97,2.22 3.81,5.38 5.48,7.57l27.51 35.22c2.11,2.78 3.54,4.44 5.54,7.11 1.54,2.06 3.66,4.91 5.09,6.86l-49.88 -0.05 -30.11 -36.64c-2.65,-3.09 -5.1,-5.94 -7.58,-9.11l-22.79 -26.85 0 72.65 -39.75 0.09zm39.75 -82.34l44.44 0c26.45,0 25.76,-39.56 0,-39.56l-44.44 0 0 39.56zm745.93 2.15c0,24.83 5.25,52.36 32.65,52.36 23.24,0 32.07,-22.78 32.07,-46.03 0,-13.89 -0.58,-27.34 -7.24,-39.22 -12.57,-22.4 -57.48,-24.15 -57.48,32.89zm-183.82 48.91c17.67,0 36.88,1.94 50.43,-6.69 24.39,-15.54 23.58,-64.45 -0.14,-78.55 -14.85,-8.82 -31.17,-6.82 -50.29,-6.82l0 92.06zm-660.35 -182.38c106.61,-0.01 1194.35,-0.85 1201.02,0.28l0.01 264.37c0.03,6.23 1.54,6.74 -4.28,6.65 -30.54,-0.51 -61.51,-0.03 -92.1,-0.03l-1104.44 0.01 -0.21 -2.03 0 -269.25zm-19.56 289.48l0 -308.47 1240.43 0 0 308.38c0,1.31 -0.39,1.71 -1.66,1.73l-0.07 0 -1236.98 0 -0.06 0c-1.24,-0.02 -1.64,-0.41 -1.66,-1.64zm817.7 -159.46c0,-42.28 30.95,-74.22 72.92,-74.22l10.94 0c42.1,0 73.06,32.19 73.06,74.22l0 12.08c0,24.87 -10.27,42.39 -22.21,54.31 -12.7,12.67 -31.39,20.38 -56.61,20.18 -34.39,-0.27 -57.27,-13.21 -71.79,-43 -6.6,-13.55 -6.31,-28.78 -6.31,-43.57zm-177.89 -70.91l56.92 0c29.42,0 62.18,6.25 78.62,27.39 3.58,4.61 5.13,7.43 8.15,13.15 4.68,8.86 6.58,24.44 6.58,35.55 0,28.35 -7.56,47.7 -24.24,60.48 -15.93,12.22 -42.14,17.91 -63.35,17.91l-62.71 0 0.03 -154.48zm-194.5 -0.72l57.9 0 50.45 86.41c1.1,1.93 2.39,4.14 3.61,6.17 0.72,1.18 1.12,1.93 1.67,2.91 0.27,0.48 0.62,1.09 0.9,1.46 0.09,0.11 0.21,0.25 0.29,0.35l1.07 1.05c0.54,-28.22 0.04,-58.01 0.04,-86.55 0,-13.85 -1.14,-11.91 4.87,-11.82 11.37,0.17 22.87,0.02 34.54,0.02l0 155.2 -60.19 -0.22 -54.29 -99.39 0.06 99.61 -40.92 0 0 -155.2zm-406.19 193.89l1161.61 0 0.58 0 0.03 -230.42 -0.03 -2.16 -1162.08 0 -0.11 2.16 0 230.42z"/>
 </g>
</svg>
