<?xml version="1.0" encoding="UTF-8"?>
<!DOCTYPE svg PUBLIC "-//W3C//DTD SVG 1.1//EN" "http://www.w3.org/Graphics/SVG/1.1/DTD/svg11.dtd">
<!-- Creator: CorelDRAW 2021 (64 Bit) -->
<svg xmlns="http://www.w3.org/2000/svg" xml:space="preserve" width="1220px" height="708px" version="1.1" style="shape-rendering:geometricPrecision; text-rendering:geometricPrecision; image-rendering:optimizeQuality; fill-rule:evenodd; clip-rule:evenodd"
viewBox="0 0 292.18 169.72"
 xmlns:xlink="http://www.w3.org/1999/xlink"
 xmlns:xodm="http://www.corel.com/coreldraw/odm/2003">
 <defs>
  <style type="text/css">
   <![CDATA[
    .fil0 {fill:white}
   ]]>
  </style>
 </defs>
 <g id="Camada_x0020_1">
  <metadata id="CorelCorpID_0Corel-Layer"/>
  <path class="fil0" d="M130.07 135.67c0.45,0.34 2.3,4.85 2.59,5.56l3.38 7.57c0.24,0.57 0.7,1.39 0.84,1.96l-12.56 0c0.08,-0.97 5.35,-13.39 5.75,-15.09zm9.48 -93.21c-0.6,0 -0.95,-0.14 -1.24,-0.49 -0.57,-0.67 -0.02,-0.71 -1.03,-0.71 0.61,2.62 3.72,2.69 4.4,-0.26l-0.66 0c-0.07,0.8 -0.64,1.46 -1.47,1.46zm-16.29 9.49c4.09,0 6.46,-1.87 9.74,-1.87l0 -0.14c-1.65,0 -1.48,-0.23 -3.39,0.21 -6.11,1.41 -9.83,-0.52 -10.9,-0.61 0.69,1.03 2.81,2.41 4.55,2.41zm55.28 -39c4.15,3.61 7.64,7.58 10.54,12.43 3.74,6.24 4.72,9.96 6.29,16.68l3.87 -4.14c0.16,-0.62 -1.93,-6.54 -2.49,-7.79 -0.29,-0.64 -0.45,-1.16 -0.76,-1.78 -1.32,-2.62 -1.85,-3.98 -3.62,-6.66 -0.37,-0.57 -0.6,-1.02 -0.99,-1.55 -0.38,-0.51 -0.66,-0.96 -1.05,-1.48l-3.47 -4.27c-3.22,-3.34 -1.72,-2.87 -5.43,-2.02 -0.8,0.18 -2.12,0.57 -2.89,0.58zm-80.66 29.11c0.15,-0.3 0.44,-1.84 0.53,-2.28 0.17,-0.84 0.35,-1.53 0.59,-2.34 2.01,-6.94 5.3,-13.33 10,-18.72 1.11,-1.27 2.22,-2.58 3.47,-3.73l1.54 -1.4c0.43,-0.37 0.55,-0.21 0.7,-0.77 -0.96,-0.02 -4.33,-0.94 -5.48,-1.2l-2.3 2.24c-0.31,0.35 -0.37,0.51 -0.73,0.86l-1.43 1.65c-2.4,3.08 -4.33,5.62 -6.17,9.31l-1.97 4.18c-1.04,2.45 -1.71,4.38 -2.38,6.97 -0.38,1.48 -0.31,1.13 2.07,3.6 0.56,0.58 0.88,1.17 1.56,1.63zm31.79 55.29c0.27,0.56 0.61,1.71 0.81,2.38 0.54,1.76 0.57,3.02 1.42,3.27l3.76 0.9c3.32,0.67 7.7,1.19 11.23,1.19 1.84,0 4.11,-0.19 5.77,-0.37 1.14,-0.13 8.28,-1.24 9.06,-1.76 0.33,-0.22 0.29,-0.52 0.45,-1.02l1.41 -4.59c-0.65,0.15 -1.25,0.4 -1.91,0.62l-5.77 1.44c-7.1,1.26 -11.74,1.12 -18.78,-0.04 -3.53,-0.58 -5.29,-1.52 -7.45,-2.02zm-5.75 -6.41c-0.59,-1.12 -2.95,-7.26 -4.18,-9.71 -0.26,-0.51 -0.43,-0.82 -0.64,-1.36 -0.72,-1.77 -1.83,-3.55 -2.7,-5.31l-2.87 -5.15c-3.96,-6.61 -7.28,-11.75 -12.16,-17.88 -0.31,-0.4 -0.55,-0.79 -0.95,-1.05 0,0.81 0.13,0.97 0.14,1.73 0.01,0.62 -0.05,1.38 0.01,1.99 1.15,10.34 3.76,17.53 10.28,25.77l3.83 4.19c1.73,1.53 7.39,6.28 9.24,6.78zm45.54 0c0.8,-0.43 1.66,-0.98 2.4,-1.47 0.81,-0.54 1.57,-1.04 2.37,-1.64 2.78,-2.06 6.12,-5.19 8.18,-7.84 1.7,-2.18 2.62,-3.42 4.07,-5.82 0.28,-0.47 0.44,-0.84 0.71,-1.28 0.46,-0.76 1.01,-1.85 1.36,-2.65 0.8,-1.79 1.64,-3.77 2.22,-5.8 1.22,-4.28 2.06,-8.5 2.06,-13.96 -0.66,0.44 -4.51,5.71 -5.18,6.7 -6.36,9.33 -9.08,13.66 -14.01,23.92 -0.24,0.51 -0.44,0.82 -0.65,1.35 -0.71,1.72 -3.21,7.11 -3.53,8.49zm-46.2 -79.86l5.38 0.76c3.36,0.45 5.51,0.49 8.52,0.83l10 0.28c4.09,0 8,-0.24 11.76,-0.52l11.21 -1.48c-0.53,-0.12 -0.72,-0.33 -1.16,-0.58 -5.84,-3.28 -14.19,-5.7 -21.01,-5.7 -8.17,0 -13.05,0.95 -19.99,3.91 -0.92,0.39 -1.61,0.75 -2.44,1.17 -0.49,0.24 -2,0.96 -2.27,1.33zm-32.85 27.78c0,-1.62 2.22,-7.98 2.82,-9.46 1.65,-4.14 3.88,-8.26 6.47,-11.83 0.47,-0.65 0.82,-1.14 1.29,-1.78 1.13,-1.5 6.33,-7.57 7.34,-7.74 0.24,-0.04 4.34,1 4.94,1.13 5.45,1.16 4.36,1.51 6.78,-0.1 2.2,-1.47 3.66,-2.1 5.88,-3.2 9.27,-4.61 21.88,-5.79 32.39,-3.16 4.78,1.2 5.17,1.57 9.12,3.17l4.03 2.11c0.65,0.39 1.26,0.73 1.92,1.16 0.6,0.39 1.44,1.11 1.91,1.09 0.77,-0.02 9.4,-1.99 9.92,-2.24 0.47,0.7 2.08,1.78 3.07,3.07l2.82 3.19c3.9,4.79 6.68,9.59 8.99,15.32 1.01,2.51 1.57,4.38 2.26,6.95 0.98,3.67 0.43,1.99 -1.84,4.93l-1.72 1.89c-3.81,4.55 -2.63,1.25 -2.63,7.52 0,3.77 -0.59,8.21 -1.5,11.85 -0.94,3.74 -2.8,8.72 -4.65,11.91l-2.56 4.12c-0.45,0.68 -0.88,1.31 -1.4,1.94 -2.22,2.7 -2.1,2.75 -4.68,5.33l-3.45 3.1c-2.85,2.22 -6.36,4.72 -9.68,6.21 -0.08,0.03 -0.25,0.1 -0.28,0.12 -0.68,0.4 -1.53,3.96 -1.9,5.04 -0.3,0.88 -0.53,1.67 -0.78,2.56 -0.11,0.4 -0.26,0.89 -0.39,1.35 -0.09,0.34 -0.14,0.92 -0.45,1.15 -1.06,0.81 -9.05,2.16 -10.94,2.42 -1.97,0.26 -4.1,0.28 -6.09,0.45 -1.22,0.1 -2.01,-0.14 -3.2,-0.13 -1,0.01 -2.17,-0.08 -3.13,-0.21 -5.57,-0.79 -6.02,-0.82 -11.13,-2.22 -1.63,-0.45 -1.15,-0.23 -1.61,-1.73l-2.37 -7.51c-0.45,-1.38 -0.48,-1.12 -1.67,-1.67 -3.83,-1.74 -6.72,-4.13 -9.93,-6.63l-1.77 -1.57c-0.57,-0.48 -1.13,-1.12 -1.68,-1.66 -0.37,-0.37 -0.46,-0.58 -0.79,-0.94l-3.73 -4.55c-3.46,-4.68 -5.83,-10.04 -7.47,-15.63 -1.7,-5.78 -1.72,-9.66 -1.72,-15.64 0,-0.78 0.26,-1.37 0,-1.87l-2.9 -3.24c-0.57,-0.68 -3.91,-4.14 -3.91,-4.37zm17.35 -32.32c-0.71,1.08 -2.3,2.12 -3.23,3.18l-4.45 5.16c-4.87,6.23 -8.6,13.9 -10.53,21.65l-0.61 2.73c0.07,0.27 3.98,4.31 4.24,4.57 0.41,0.41 0.56,0.71 1,1.14l1.56 1.78c0.27,0.36 0.29,0.26 0.29,0.92 0,0.44 -0.09,0.62 -0.13,0.96l-0.02 2.51c0,11.47 3.87,21.72 10.24,30.22 2.34,3.11 5.31,6.23 8.3,8.66 2.55,2.07 4.11,3.11 6.94,4.82 0.39,0.24 0.73,0.37 1.12,0.61 3.09,1.88 1.57,-0.37 3.83,6.32 0.29,0.86 0.48,1.68 0.77,2.57 0.15,0.46 0.23,0.78 0.36,1.24 0.34,1.25 0.28,0.94 3.24,1.83 9.57,2.86 21.2,2.94 30.9,0.36 1.37,-0.37 2.79,-0.89 4.14,-1.21 0.02,-1.01 2.09,-7.26 2.42,-8.26 0.74,-2.22 0.29,-1.59 1.68,-2.33 0.36,-0.2 0.49,-0.31 0.84,-0.49 3.47,-1.8 8.16,-5.16 10.92,-7.91l3.94 -4.21c3.02,-3.25 6.5,-9.35 8.11,-13.39 1.04,-2.62 1.89,-5.18 2.59,-8.22 1.2,-5.26 1.15,-8.27 1.15,-13.54 0,-1.81 -0.73,-0.23 1.12,-2.62 0.34,-0.44 0.64,-0.62 0.98,-1.03l1.87 -2.13c0.43,-0.49 2.86,-2.74 2.97,-3.17 -0.04,-0.46 -0.18,-0.85 -0.28,-1.32 -0.09,-0.46 -0.18,-0.8 -0.31,-1.3 -0.61,-2.44 -1.41,-5 -2.31,-7.3 -0.6,-1.55 -1.23,-3.01 -1.95,-4.46 -2.29,-4.58 -4.34,-7.73 -7.55,-11.68l-3.05 -3.35c-0.57,-0.57 -1.04,-1.04 -1.61,-1.6 -0.28,-0.29 -0.5,-0.54 -0.8,-0.8 -1.24,-1.1 -0.77,-0.86 -3.45,-0.19 -0.87,0.22 -1.68,0.4 -2.49,0.59 -0.73,0.17 -4.72,1.1 -5.14,1.02l-5.87 -3.44c-2.6,-1.47 -8.66,-3.47 -11.61,-4.15 -1.78,-0.41 -3.46,-0.67 -5.38,-0.89 -1.71,-0.2 -4.01,-0.39 -5.89,-0.39 -16.98,0 -27.94,8.68 -28.6,8.79 -0.74,0.12 -8.91,-1.93 -10.26,-2.25zm43.94 45.67c0.54,0.05 1.5,0.52 1.9,0.78 1.52,0.95 2.23,1.86 2.85,3.55 0.08,0.23 0.11,0.35 0.17,0.5 0.01,0.04 0.02,0.08 0.03,0.1l0.12 0.28c0.18,-0.75 0.4,-1.61 0.4,-2.54 0,-1.88 -0.8,-3.86 -1.68,-5.13 -1.26,-1.84 -0.36,-0.63 -0.19,-2.75 0.49,0.14 1.06,0.96 1.4,1.42 2.41,3.19 2.94,7.15 1.1,10.83 -0.41,0.82 -1.85,2.95 -2.5,3.38 0,-1.61 0.15,-5.83 -1.2,-6.81 0.24,1.02 0,2.74 -0.31,3.69 -0.96,2.9 -2.86,4.24 -5.7,4.99 -0.39,0.11 -1.3,0.25 -1.6,0.4 0.26,-1.13 2.27,-2.69 2.27,-5.21 -0.12,0.14 -0.03,0.02 -0.17,0.23 -2.25,3.34 -4.05,2.51 -6.64,3.11 0.29,-1.07 2.54,-1.84 2.54,-4.14 0,-0.62 -0.22,-0.89 -0.27,-1.47 0.42,-0.22 1.06,-0.62 1.6,-0.67 0.63,2.72 0.44,1.32 0.27,3.34 0.36,-0.1 0.33,-0.16 0.52,-0.41 1.22,-1.54 1.22,-3.16 1.22,-5.2 0.64,0.18 0.98,0.81 1.37,1.3 2.15,2.64 1.15,4.44 1.03,5.91 1.26,-0.84 2.27,-2.82 2.27,-4.94 0,-1.4 -0.52,-3.33 -0.8,-4.54zm-10.73 -4.36c-0.01,-0.04 -0.06,-0.03 -0.09,-0.04 1.49,-0.58 2.66,0.48 3.36,1.05 1.35,1.09 1.69,1.46 3.32,1.08 -0.31,0.43 -1.13,0.8 -1.87,0.8 -1.36,0 -1.78,-0.73 -2.5,-1.5 -0.9,-0.95 -1.12,-0.98 -2.03,-1.31 -0.18,-0.07 -0.12,0.11 -0.19,-0.08zm14.07 -6.72c0.68,-1.03 3.46,-2.67 5.07,-2.81 -0.21,0.81 -1.26,2.02 -1.83,2.58 -0.72,0.7 -1.73,1.17 -2.84,1.43 -0.06,-0.64 -0.27,-0.61 -0.4,-1.2zm-0.4 2.8c2.62,-0.61 4.6,-2.64 6.03,-4.78 0.37,-0.54 1.02,-1.63 1.18,-2.29 -2.63,0 -4.66,1.04 -6.44,2.5 -0.52,0.43 -1.26,0.81 -1.44,1.5 -0.67,-0.05 -1.18,-0.63 -1.47,-1.07 0.57,-0.84 1.74,-1.71 2.54,-2.4l-14.96 0c-1.33,-0.02 -1.06,0.06 -1.77,0.77 -0.34,0.34 -0.91,0.89 -1.03,1.37 0.41,0.03 0.47,0.13 0.93,0.13 1.45,0 1.82,-0.27 2.94,-0.27 1.64,0 3.4,0.51 4.17,1.64l-1.1 1.03c-0.83,-0.22 -0.61,-0.87 -1.47,0.81 -1.19,2.33 -4.29,2.58 -5.84,1.03 -2.3,-2.27 -0.34,-3.18 -2.45,-3.96 -0.75,-0.27 -1.54,-0.55 -2.53,-0.55 -3.45,0 -5.59,3.73 -5.74,5.48 0.6,-0.14 1.2,-0.49 1.85,-0.69 4.85,-1.5 5.8,1.4 7.82,2.64 1.5,0.91 4.5,1.15 5.43,2.45 1.16,1.59 0.11,2.82 -1.15,3.8 -0.42,0.33 -0.67,0.58 -1.11,0.9 -1.28,0.94 -3.36,2.38 -5.49,2.38 -1.69,0 -2.12,-0.35 -3.47,-0.67 0.45,0.86 0.99,1.38 1.95,1.78 2.73,1.15 7.77,-0.17 10.06,-0.17 -0.21,0.29 -0.45,0.32 -0.84,0.49l-2.53 1.07c-1.78,0.76 -3.3,1.45 -4.53,2.96 -0.76,0.94 -1.3,2.07 -1.45,3.36 -0.11,0.99 0.01,1.05 0.01,2.13 0.55,-0.14 1.05,-0.78 1.54,-1.12 1.48,-1.02 3.76,-2.04 5.53,-2.08 -0.13,0.49 -0.37,0.53 -0.68,0.91 -0.3,0.36 -0.45,0.52 -0.75,0.86 -0.42,0.5 -0.95,1.26 -1.24,1.83 -1.17,2.27 -1.47,3.23 -1.47,5.88 0,2.83 2.63,7.05 3.74,7.34 0,-2.62 1,-7.38 3.13,-9.02 0.38,-0.3 0.54,-0.6 1.01,-0.72 0.72,3.06 0.91,3.58 1.42,7.13 0.37,2.58 0.02,5.38 -0.48,7.55 1.72,-0.14 4,-1.5 5.11,-2.89 2.93,-3.63 1.98,-8.11 1.03,-12.2 0.75,0.07 1.98,0.62 2.51,0.96 2.42,1.56 3.5,3.63 3.5,6.92 0.9,-0.47 1.8,-1.47 2.43,-2.24 2.5,-3.13 2.36,-6.49 0.85,-10.12 -0.51,-1.24 -1.82,-2.97 -1.95,-3.53 2.32,0 2.78,0 4.37,0.85 0.8,0.42 2.24,1.74 2.45,2.62l0.26 0c0.06,-0.7 0.33,-1.17 0.46,-1.94 0.69,-3.88 -0.5,-8.01 -3.03,-10.71 -0.4,-0.42 -0.59,-0.73 -1,-1.14 -0.52,-0.52 -2.03,-1.71 -2.17,-2.1 3.89,-0.9 2.85,-0.6 6.01,0.14 -0.38,-0.8 -0.47,-1.45 -0.96,-2.25 -1,-1.64 -2.96,-4.24 -4.92,-4.7 -0.69,0.47 -1.22,0.88 -2.04,1.3 -0.78,0.39 -1.59,0.63 -2.5,0.84 -0.01,-0.67 -0.25,-1.07 -0.26,-1.74zm100.68 106.83c0.05,-0.58 1.11,-2.96 1.4,-3.68 0.5,-1.27 0.94,-2.36 1.45,-3.62l2.9 -7.39c0.39,0.46 5.14,11.2 5.87,12.69l0.8 1.87c-4.28,0 -8.25,0.13 -12.42,0.13zm-37.79 17.76c0,0.31 0.1,0.4 0.4,0.4l29.65 0c0.42,0 0.4,-0.28 0.54,-0.66l2.4 -6.15 21.76 0 3.07 6.81 16.83 0c-0.05,-0.61 -0.26,-0.88 -0.48,-1.39 -2.06,-4.87 -4.14,-10.53 -6.23,-15.39 -0.41,-0.95 -0.72,-1.8 -1.11,-2.77l-5.71 -14.06c-0.77,-1.93 -1.49,-3.67 -2.27,-5.61 -0.39,-0.97 -0.74,-1.78 -1.12,-2.74 -0.35,-0.89 -0.9,-2.02 -1.11,-2.9l-25.9 0c-0.14,0.56 -0.57,1.49 -0.79,2.02l-12.4 30.59c-0.1,0.17 -0.08,0.13 -0.17,0.24l0 -32.85 -17.36 0 0 44.46zm-60.49 -132.33c2.66,-0.62 1.78,-1.07 5.47,-1.07 0.75,0 0.8,0.13 1.47,0.13 0,1.67 -1.23,4.13 -2.13,5.48 -0.35,0.52 -0.74,0.97 -1.07,1.47 2.09,1.4 3.93,2.89 5.07,5.2 0.62,1.25 1.03,2.1 1.39,3.69 0.42,1.81 0.21,3.57 0.48,4.73 -0.3,-0.11 -0.11,-0.01 -0.31,-0.22l-0.65 -0.96c-0.84,-1.26 -1.71,-2.92 -3.58,-2.96 0.3,0.44 0.41,0.56 0.76,0.97 0.28,0.33 0.49,0.64 0.75,0.99 2.87,3.81 3.47,8.78 1.85,13.28 -0.31,0.86 -1.33,3.08 -2.02,3.59 -0.43,-0.9 -0.62,-2.31 -1.07,-3.21 -0.52,-1.05 -1.1,-1.72 -2.14,-2.27 0.55,2.35 1.47,2.46 1.47,6.15 0,3.75 -2.27,6.79 -5.09,8.92 -1.02,0.77 -1.92,1.16 -3.05,1.76 0,-0.85 0.26,-2.31 0.26,-3.87 0,-1.68 -0.89,-3.49 -1.87,-4.14 0.36,4.32 0.7,6.76 -2.19,10.49 -0.28,0.36 -0.42,0.47 -0.74,0.72 -2.54,1.96 -4.95,2.81 -8.42,2.81 0.32,-1.36 1.74,-2.04 1.74,-7.08 0,-1.99 -0.42,-4.48 -0.8,-6.14 -0.02,0.02 -0.05,0.03 -0.06,0.07l-0.42 0.78c-1.14,2.89 -1.12,5.92 -1.12,9.16 -1.08,-0.29 -3.79,-3.22 -4.62,-4.33 -2.19,-2.9 -3.03,-6.7 -2.06,-10.36 0.22,-0.83 0.63,-1.55 0.8,-2.27l-1.62 1.45c-0.27,0.34 -1.17,1.44 -1.45,1.62 -0.55,-2.33 -2.42,-5.06 0.09,-9.12 0.58,-0.95 1.28,-1.35 1.78,-2.09 -3.25,0 -5.88,-2.01 -5.88,-5.21l0 -1.07c2.45,0.06 4.01,2.41 7.69,0.75 0.6,-0.27 1.29,-0.88 1.79,-1.02l0 -0.26c-1.31,-0.11 -1.26,-0.94 -4.67,-0.94 -4.19,0 -7.97,3.59 -13.04,0.89 -0.49,-0.26 -0.86,-0.55 -1.27,-0.87l-1.08 -1.05c-1.03,-1.08 -1.65,-2.79 -2.22,-4.2 -0.2,-0.5 -0.45,-1.14 -0.68,-1.58 1.48,0.35 3.77,4.01 10.53,3.91 0.35,0 0.81,-0.03 1.22,-0.03 3,0 7.15,-2.4 11.05,1.76 0.6,0.64 0.6,0.95 0.96,1.71 4.4,-2.95 -1.46,-2.43 -4.29,-4.66 -0.31,-0.25 -0.66,-0.5 -0.95,-0.78 -1.35,-1.29 -1.06,-1.37 -3.17,-1.37 -1.94,0 -3.62,1.19 -5.05,2.16 -0.49,0.33 -0.87,0.76 -1.49,0.91 0.79,-1.66 0.47,-5.1 3.45,-8.84 1.55,-1.94 4.27,-2.52 6.67,-1.95 0.79,0.19 1.51,0.59 2.3,0.77 0.3,-0.45 0.64,-0.9 0.93,-1.33 -0.27,-1.17 -2.42,-5.78 -2.93,-6.95 -0.51,-1.16 -0.97,-2.31 -1.48,-3.47 -0.26,-0.58 -0.49,-1.14 -0.76,-1.77 -0.2,-0.48 -0.66,-1.35 -0.7,-1.83 1.58,0 3.03,0.73 3.62,2.25 0.34,0.85 0.14,0.77 0.12,1.62 0.84,-0.57 1.72,-1.55 3.5,0.09 1.23,1.13 1.51,3.48 0.03,4.51 -0.85,0.6 -1.21,0.34 -2.33,0.34 2.46,3.68 6.57,3.43 8.94,-1.07 -0.5,0.04 -0.89,0.27 -1.33,0.27 -3.65,0 -3.62,-5.74 0,-5.74 0.49,0 0.32,0.11 0.93,0.13 -0.28,-1.2 -0.4,-0.46 -0.4,-2.14 0,-1.36 1.55,-2.39 2.79,-2.35 1.65,0.04 2.69,1.41 2.69,3.02 0,0.92 -0.38,1 -0.54,1.6 2.74,-1.31 5.04,2.41 3.1,4.57 -1.32,1.46 -2.7,0.69 -3.5,0.51 0.93,1.39 2.45,3.74 4.68,3.74 1.57,0 3.72,-0.99 4.14,-2.54 -4.7,0 -3.26,-6.96 0.62,-5.57 0.47,0.17 0.46,0.26 0.85,0.36 -0.13,-1.48 -0.29,-2.2 1.03,-3.37 0.7,-0.62 1.42,-0.9 2.7,-0.9 -0.07,0.88 -3.58,8.95 -4.08,10.2 -0.25,0.64 -0.43,1.09 -0.68,1.72 -0.24,0.59 -0.45,1.2 -0.71,1.7zm-56.22 9.35c0,0.04 2.42,3.02 2.67,3.33 0.88,1.13 1.76,2.21 2.63,3.38 2.71,3.63 4.93,6.9 7.36,10.67l1.68 2.73c2,3.02 5.21,9.36 6.89,12.74 1.92,3.83 3.89,8.6 5.42,12.61 1.01,2.62 0.22,1.97 2.96,3.05 1.41,0.55 3.06,1.05 4.58,1.43 9.24,2.29 19.13,2.01 27.91,-1.47 1.22,-0.49 1.93,-0.56 2.22,-1.12 0.35,-0.67 2.98,-7.93 4.32,-10.63 0.9,-1.8 1.91,-4.4 2.93,-6.15 0.54,-0.92 1.01,-2.02 1.52,-3.02 2.77,-5.55 8.61,-14.67 12.38,-19.68l6.05 -7.69c0.29,-0.43 0.1,-0.91 -0.05,-1.79 -0.56,-3.33 -1.12,-5.95 -2.34,-9.13 -2.85,-7.42 -6.23,-12.26 -11.84,-17.81l-1.21 -1.07c-0.28,-0.26 -2.43,-2.03 -2.63,-2.03 -0.82,0 -5,0.77 -6.54,0.94 -7.67,0.86 -12.69,1.46 -20.97,1.46 -0.8,0 -1.61,0.01 -2.41,0.01l-11.86 -0.7 -11.09 -1.46c-0.34,-0.06 -1.92,-0.39 -2.14,-0.37 -0.41,0.04 -1.09,0.68 -1.44,0.96l-4.01 3.6c-2.43,2.42 -4.75,5.53 -6.55,8.4 -1.8,2.85 -3.72,7.12 -4.72,10.38 -0.6,1.94 -1.72,6.42 -1.72,8.43zm-98.95 91.6c0,2.15 0.37,4.36 1.16,5.92 2.3,4.58 7.04,6.59 11.94,7.42 3.82,0.65 8.34,0.69 12.27,0.68 13.66,-0.01 8.71,8.95 2.41,8.95 -2.67,0 -5.43,-0.13 -7.53,-1.42 -1.42,-0.88 -2.49,-2.36 -2.49,-4.59l-19.63 0c0,2.74 0.45,4.89 1.9,7.05l1.17 1.5c0.7,0.93 1.82,1.65 2.78,2.3 8.64,5.78 29.62,5.86 39.9,2.19 3.49,-1.25 6.61,-3.4 8.53,-6.57 0.4,-0.68 1.47,-2.7 1.54,-3.53 0.56,0.41 1.47,2.19 1.96,2.84 3.77,5.04 8.93,8.17 15.3,9.14 6.16,0.94 14.45,1.08 20.37,-0.52 3.53,-0.96 7.62,-3.87 8.04,-3.98 -0.32,0.67 -0.64,1.6 -0.92,2.29 -0.43,1.08 -1.11,2.11 -0.42,2.11l16.03 0c0.61,0 0.82,-1.08 1.02,-1.51 0.85,-1.81 1.53,-3.83 2.45,-5.56l21.9 0c0.25,1.07 2.06,4.8 2.61,6.2 0.15,0.39 0.16,0.74 0.59,0.74l28.45 0 0 -26.44 1.29 1.64c0.45,0.6 0.83,1.05 1.28,1.66 4.22,5.62 8.6,11.09 12.8,16.71l3.84 4.98c0.27,0.37 1.03,1.58 1.49,1.58l19.63 0c0.3,0 0.4,-0.09 0.4,-0.4l0 -44.46 -16.7 0 0 23.9c-0.52,-0.35 -4.97,-6.41 -5.64,-7.31l-3.46 -4.56c-1.52,-2.03 -3.02,-3.94 -4.55,-5.99 -0.4,-0.52 -0.69,-0.91 -1.09,-1.45 -0.51,-0.67 -3.25,-3.97 -3.42,-4.59l-22.16 0 0 32.85c-0.4,-0.58 -0.59,-1.3 -0.86,-1.95l-4.28 -10.28c-0.3,-0.76 -0.58,-1.4 -0.85,-2.08 -0.28,-0.7 -0.55,-1.37 -0.87,-2.07 -1.82,-4.06 -3.39,-8.17 -5.11,-12.26 -0.38,-0.92 -1.59,-3.39 -1.65,-4.21l-25.64 0c-0.08,0.88 -8.25,20.8 -9.22,23.23l-1.33 3.34 -15.89 0c-0.52,2.2 -1.39,4.27 -2.77,5.65 -2.68,2.68 -8.56,3.11 -12.01,1.25 -1.17,-0.63 -2.04,-1.38 -2.88,-2.33 -4.73,-5.31 -3.76,-21.8 6.97,-21.8 4.37,0 7.57,0.71 9.49,4.54 0.5,1.01 0.78,1.97 1.06,3.21l18.03 0 0 -1.87c0,-2.84 -1.64,-6.14 -2.92,-7.77 -0.65,-0.82 -1.78,-2.08 -2.61,-2.73 -6.86,-5.33 -14.71,-6.33 -23.45,-6.33 -4.86,0 -10.02,0.74 -14.02,2.67 -6.34,3.08 -9.87,7.65 -11.43,14.75 -0.2,0.92 -0.34,1.63 -0.48,2.59 -0.1,0.74 -0.21,1.97 -0.37,2.69 -0.74,-0.49 -1.84,-1.68 -2.94,-2.4 -4,-2.64 -5.87,-2.49 -10.4,-2.96 -3.5,-0.36 -6.92,-0.39 -10.44,-0.38 -0.96,0.01 -1.47,-0.14 -2.53,-0.13 -3.23,0.01 -6.81,-0.91 -6.81,-4.01 0,-5.01 9,-5.38 12.12,-3.17 1.59,1.13 2.03,3.25 2.03,5.44l19.1 0c0,-6.86 -4.09,-10.87 -10.07,-12.9 -5.05,-1.72 -10.18,-2.17 -15.71,-2.19 -1.92,-0.01 -7.49,0.42 -9.45,0.69 -8.07,1.14 -16.85,4.7 -16.85,14z"/>
 </g>
</svg>
