<?xml version="1.0" encoding="UTF-8"?>
<!DOCTYPE svg PUBLIC "-//W3C//DTD SVG 1.1//EN" "http://www.w3.org/Graphics/SVG/1.1/DTD/svg11.dtd">
<!-- Creator: CorelDRAW 2021 (64 Bit) -->
<svg xmlns="http://www.w3.org/2000/svg" xml:space="preserve" width="752px" height="753px" version="1.1" style="shape-rendering:geometricPrecision; text-rendering:geometricPrecision; image-rendering:optimizeQuality; fill-rule:evenodd; clip-rule:evenodd"
viewBox="0 0 491.05 491.45"
 xmlns:xlink="http://www.w3.org/1999/xlink"
 xmlns:xodm="http://www.corel.com/coreldraw/odm/2003">
 <defs>
  <style type="text/css">
   <![CDATA[
    .fil0 {fill:white}
   ]]>
  </style>
 </defs>
 <g id="Camada_x0020_1">
  <metadata id="CorelCorpID_0Corel-Layer"/>
  <path class="fil0" d="M212.89 36.65c65.19,-11.14 124.65,11.26 163.72,42.75 142.44,114.76 87.24,344.3 -97.07,375.47 -66.28,11.2 -125.63,-11.53 -165.4,-43 -91.97,-72.79 -107.74,-206.81 -34.94,-297.47 4.69,-5.84 5.96,-9 12.05,-14.23 18.28,-15.69 10.99,-14.82 43.58,-35.14 25.06,-15.63 46.46,-22.98 78.06,-28.38zm-18.35 376.55c24.98,10.84 76.53,10.01 101.79,0.04l-50.32 -114.49 -6.85 12.82c-10.27,24.6 -40.62,87.38 -44.62,101.63zm-0.12 -335.25c5.39,16.7 17.14,39.89 25.31,57.71l23.73 53.03c1.83,2.83 1.54,2.34 3.25,4.08l49.93 -114.14c-21.22,-12.19 -81.25,-9.27 -102.22,-0.68zm123.97 326.79c33.48,-11.62 67.47,-48.36 82.59,-77.92 19.01,-37.16 27.6,-89.99 12.02,-132.65 -5.36,6.26 -89.26,193.67 -94.61,210.57zm-146.03 0.06c-4.72,-15.65 -89.22,-204.36 -94.49,-210.63 -15.83,40.89 -6.75,95.41 11.16,131.28 15.21,30.46 49.07,66.85 83.33,79.35zm12.91 -78.72l34.43 -74.77 51.75 -0.09 33.2 75.22 82.98 -182.4c-6.69,-14.22 -36.49,-41.55 -51.48,-48.03l-65.06 144 -51.68 0.06 -63.93 -144.39c-13.75,5.93 -43.37,32.42 -48.98,41.88 -6.04,10.17 14.09,44.99 21.92,63.18 7.78,18.08 50.11,116.17 56.85,125.34zm-126.57 79.99c7.07,9.62 32.38,31.48 43.61,39.52 25.18,18.01 46.99,27.67 65.3,33.33 54.53,16.86 98.59,16.34 153.1,0.68 18.76,-5.39 41.55,-15.02 69.09,-34.88 5.45,-3.93 10.39,-8.2 16.09,-12.39 7.65,-5.62 6.73,-7.1 12.94,-13.31 30.1,-30.14 49.75,-60.74 62.5,-103.7 13.66,-46.07 11.72,-85.18 1.6,-131.41 -4.68,-21.41 -14.06,-48.8 -38.43,-82.69 -16.06,-22.33 -36.41,-41.65 -58.57,-57.39 -11.67,-8.28 -21.57,-14.11 -36.04,-20.82 -52.55,-24.38 -113.07,-29.56 -169.04,-14.71 -44.24,11.75 -98.81,45.15 -122.15,76.83 -18.82,25.56 -30.62,45.08 -38.17,60.71 -20.7,42.83 -25.14,99.47 -16.05,148.11 8.88,47.53 25.97,73.74 54.22,112.12z"/>
 </g>
</svg>
