<?xml version="1.0" encoding="UTF-8"?>
<!DOCTYPE svg PUBLIC "-//W3C//DTD SVG 1.1//EN" "http://www.w3.org/Graphics/SVG/1.1/DTD/svg11.dtd">
<!-- Creator: CorelDRAW 2021 (64 Bit) -->
<svg xmlns="http://www.w3.org/2000/svg" xml:space="preserve" width="753px" height="753px" version="1.1" style="shape-rendering:geometricPrecision; text-rendering:geometricPrecision; image-rendering:optimizeQuality; fill-rule:evenodd; clip-rule:evenodd"
viewBox="0 0 87.99 87.99"
 xmlns:xlink="http://www.w3.org/1999/xlink"
 xmlns:xodm="http://www.corel.com/coreldraw/odm/2003">
 <defs>
  <style type="text/css">
   <![CDATA[
    .fil0 {fill:white;fill-rule:nonzero}
   ]]>
  </style>
 </defs>
 <g id="Camada_x0020_1">
  <metadata id="CorelCorpID_0Corel-Layer"/>
  <path class="fil0" d="M39.71 47.33l10.68 0 0 -3.57 -1.18 0c0,1.37 -0.99,2.37 -2.52,2.37l-1.64 0 0 -5.32 1.77 0 0 -1.18 -7.11 0 0 1.18 1.79 0 0 5.32 -1.79 0 0 1.2zm26.42 -45.6l0 1.24c2.67,1.44 5.17,3.15 7.5,5.06l-6.27 6.27c2.37,1.86 4.5,3.99 6.36,6.35l6.26 -6.26c1.92,2.33 3.63,4.85 5.07,7.48l1.21 0 0 -20.14 -20.13 0zm-10.61 45.6l4.15 0.01 3.53 -6.53 1.77 0 0 -1.18 -5.32 0 0 1.18 1.54 0 -2.57 4.75 -2.6 -4.75 1.86 0 0 -1.18 -7.71 0 -0.01 1.18 1.77 0 3.59 6.52zm-37.08 -7.7l-7.71 0 -0.01 1.18 1.77 0 3.59 6.52 4.15 0.01 3.53 -6.53 1.77 0 0 -1.18 -5.32 0 0 1.18 1.53 0 -2.56 4.75 -2.61 -4.75 1.87 0 0 -1.18zm8.12 3.86c0,2.27 1.83,4.07 5.49,4.07 3.66,0 5.47,-1.8 5.47,-4.07 0,-2.24 -1.92,-4.02 -5.49,-4.02 -3.57,0 -5.47,1.78 -5.47,4.02zm39.43 0c0,2.27 1.83,4.07 5.49,4.07 3.66,0 5.47,-1.8 5.47,-4.07 0,-2.24 -1.92,-4.02 -5.49,-4.02 -3.57,0 -5.47,1.78 -5.47,4.02zm14.21 -24.49l-4.47 4.47c3.83,5.91 6.06,12.96 6.06,20.53 0,20.87 -16.92,37.79 -37.79,37.79 -20.88,0 -37.8,-16.92 -37.8,-37.79 0,-20.88 16.92,-37.8 37.8,-37.8 7.58,0 14.65,2.24 20.57,6.09l4.47 -4.47c-7.11,-4.93 -15.74,-7.82 -25.04,-7.82 -24.3,0 -44,19.7 -44,44 0,24.3 19.69,43.99 44,43.99 24.3,0 43.99,-19.69 43.99,-43.99 0,-9.29 -2.88,-17.9 -7.79,-25zm-8.67 21.68c1.22,0.03 1.86,1.34 1.84,2.83 -0.03,1.4 -0.61,2.85 -1.95,2.83 -1.3,-0.02 -1.88,-1.46 -1.85,-2.9 0.02,-1.49 0.73,-2.78 1.96,-2.76zm-37.59 2.83c-0.03,1.4 -0.61,2.85 -1.95,2.83 -1.3,-0.02 -1.88,-1.46 -1.85,-2.9 0.02,-1.48 0.73,-2.77 1.96,-2.76 1.22,0.02 1.86,1.34 1.84,2.83z"/>
 </g>
</svg>
